<?xml version="1.0" encoding="UTF-8"?>
<!DOCTYPE svg PUBLIC "-//W3C//DTD SVG 1.1//EN" "http://www.w3.org/Graphics/SVG/1.1/DTD/svg11.dtd">
<!-- Creator: CorelDRAW -->
<svg xmlns="http://www.w3.org/2000/svg" xml:space="preserve" width="33.4186mm" height="42.598mm" version="1.1" style="shape-rendering:geometricPrecision; text-rendering:geometricPrecision; image-rendering:optimizeQuality; fill-rule:evenodd; clip-rule:evenodd"
viewBox="0 0 1192.64 1520.23"
 xmlns:xlink="http://www.w3.org/1999/xlink"
 xmlns:xodm="http://www.corel.com/coreldraw/odm/2003">
 <defs>
  <style type="text/css">
   <![CDATA[
    .fil1 {fill:#D7D7D7;fill-rule:nonzero}
    .fil0 {fill:#FF760C;fill-rule:nonzero}
   ]]>
  </style>
 </defs>
 <g id="Camada_x0020_1">
  <metadata id="CorelCorpID_0Corel-Layer"/>
  <path class="fil0" d="M95.07 1108.75l1001.91 0c6.33,0.07 12.57,1.42 18.35,3.96 5.79,2.56 10.99,6.26 15.3,10.89 4.31,4.63 7.64,10.07 9.77,16.02 2.14,5.96 3.05,12.28 2.67,18.58 -24.5,338.33 -304.84,338.33 -547.03,338.33 -242.2,0 -521.14,-18.78 -546.92,-338.33 -0.41,-6.32 0.47,-12.65 2.58,-18.62 2.12,-5.97 5.42,-11.44 9.72,-16.1 4.3,-4.64 9.5,-8.38 15.29,-10.95 5.78,-2.57 12.03,-3.94 18.37,-4.02l0 0.24z"/>
  <path class="fil0" d="M1114.25 667.76l-1036.33 0c-3.45,-0.01 -6.85,-0.87 -9.89,-2.51 -3.04,-1.63 -5.64,-3.98 -7.56,-6.85 -1.92,-2.87 -3.12,-6.16 -3.47,-9.59 -0.35,-3.43 0.14,-6.9 1.43,-10.1 44.08,-106.3 118.68,-197.15 214.38,-261.07 95.7,-63.91 208.19,-98.03 323.27,-98.03 115.08,0 227.57,34.11 323.27,98.03 95.69,63.92 170.3,154.76 214.38,261.07 1.29,3.2 1.79,6.67 1.43,10.1 -0.35,3.43 -1.55,6.73 -3.47,9.59 -1.93,2.87 -4.53,5.22 -7.57,6.85 -3.04,1.63 -6.44,2.49 -9.89,2.51z"/>
  <path class="fil1" d="M230.94 512.67c-3.67,-0.04 -7.17,-1.52 -9.77,-4.1 -1.37,-1.35 -2.46,-2.97 -3.2,-4.74 -0.74,-1.78 -1.12,-3.68 -1.12,-5.61 0,-1.93 0.38,-3.83 1.12,-5.61 0.74,-1.77 1.83,-3.39 3.2,-4.74 73.79,-76.88 170.32,-128.02 275.37,-145.89 3.89,-0.66 7.87,0.25 11.09,2.53 3.21,2.28 5.39,5.74 6.05,9.63 0.66,3.88 -0.25,7.87 -2.53,11.08 -2.28,3.22 -5.74,5.39 -9.62,6.05 -99.15,16.54 -190.33,64.58 -260.04,137 -1.38,1.4 -3.02,2.5 -4.84,3.25 -1.81,0.75 -3.75,1.14 -5.71,1.14z"/>
  <path class="fil1" d="M205.55 552.31c0,3.25 -0.97,6.42 -2.77,9.13 -1.81,2.7 -4.38,4.8 -7.38,6.04 -3,1.24 -6.31,1.56 -9.49,0.92 -3.18,-0.64 -6.11,-2.21 -8.4,-4.52 -2.29,-2.31 -3.85,-5.24 -4.47,-8.43 -0.62,-3.19 -0.28,-6.49 0.97,-9.49 1.26,-2.99 3.37,-5.55 6.08,-7.34 2.71,-1.79 5.89,-2.74 9.14,-2.72 2.15,0 4.28,0.42 6.26,1.25 1.99,0.82 3.79,2.03 5.3,3.56 1.52,1.52 2.72,3.33 3.53,5.32 0.81,1.99 1.22,4.12 1.21,6.27z"/>
  <path class="fil1" d="M95.07 1132.09c-3.16,0.04 -6.28,0.73 -9.17,2.01 -2.89,1.27 -5.48,3.13 -7.63,5.46 -2.12,2.27 -3.74,4.96 -4.77,7.88 -1.02,2.94 -1.43,6.04 -1.18,9.14 23.33,292.48 271.71,316.98 523.7,316.98 246.16,0 500.84,0 523.7,-316.98 0.16,-3.1 -0.31,-6.22 -1.38,-9.15 -1.06,-2.93 -2.7,-5.61 -4.82,-7.89 -2.11,-2.29 -4.67,-4.13 -7.52,-5.4 -2.84,-1.28 -5.91,-1.97 -9.03,-2.05l-1001.91 0zm500.95 388.14c-202.41,0 -541.09,0 -570.13,-359.91 -0.78,-9.53 0.43,-19.11 3.54,-28.15 3.11,-9.04 8.06,-17.33 14.54,-24.35 6.52,-7.03 14.43,-12.66 23.22,-16.51 8.79,-3.85 18.28,-5.86 27.88,-5.88l1001.91 0c9.53,0.07 18.94,2.1 27.67,5.93 8.71,3.84 16.56,9.42 23.05,16.4 6.48,6.99 11.48,15.21 14.68,24.19 3.19,8.98 4.52,18.52 3.9,28.03 -26.02,360.26 -327.82,360.26 -570.25,360.26z"/>
  <path class="fil1" d="M81.3 644.43l1029.56 0c-42.71,-101.25 -114.32,-187.65 -205.88,-248.4 -91.56,-60.75 -199.01,-93.16 -308.89,-93.16 -109.89,0 -217.33,32.4 -308.9,93.16 -91.56,60.75 -163.18,147.16 -205.89,248.4zm1032.95 46.67l-1036.33 0c-7.29,0.01 -14.47,-1.77 -20.92,-5.2 -6.44,-3.43 -11.93,-8.39 -15.99,-14.45 -4.06,-6.06 -6.57,-13.02 -7.29,-20.28 -0.72,-7.26 0.35,-14.58 3.13,-21.32 45.84,-110.58 123.43,-205.09 222.97,-271.58 99.54,-66.49 216.56,-101.98 336.26,-101.98 119.7,0 236.72,35.49 336.26,101.98 99.54,66.49 177.13,161 222.97,271.58 2.75,6.75 3.8,14.07 3.05,21.32 -0.74,7.25 -3.24,14.21 -7.29,20.26 -4.06,6.06 -9.54,11.03 -15.96,14.47 -6.42,3.45 -13.59,5.27 -20.87,5.3l0 -0.11z"/>
  <path class="fil1" d="M460.35 449.95c-4.6,3.81 -10.45,5.8 -16.42,5.58 -5.97,-0.21 -11.66,-2.62 -15.98,-6.75 -4.32,-4.13 -6.97,-9.7 -7.45,-15.66 -0.48,-5.96 1.25,-11.88 4.85,-16.65 9.21,-9.8 50.28,-37.33 60.08,-28 9.8,9.34 -15.4,51.68 -24.73,61.48l-0.35 0z"/>
  <path class="fil1" d="M218.5 594.73c-2.63,1.83 -5.59,3.13 -8.72,3.81 -3.13,0.69 -6.36,0.75 -9.51,0.19 -3.15,-0.56 -6.16,-1.74 -8.86,-3.47 -2.7,-1.73 -5.03,-3.97 -6.86,-6.6 -1.83,-2.63 -3.13,-5.59 -3.81,-8.72 -0.69,-3.13 -0.75,-6.36 -0.19,-9.51 0.56,-3.15 1.74,-6.16 3.47,-8.86 1.73,-2.7 3.97,-5.03 6.6,-6.86 11.67,-7.7 56.81,-26.25 64.52,-15.17 7.7,11.08 -25.55,47.48 -36.63,55.18z"/>
  <path class="fil1" d="M570.71 566.38c-0.84,6.42 -4.19,12.24 -9.32,16.2 -5.13,3.95 -11.62,5.7 -18.04,4.86 -6.42,-0.84 -12.24,-4.19 -16.2,-9.32 -3.95,-5.13 -5.7,-11.62 -4.86,-18.04 1.75,-13.42 18.9,-59.73 32.2,-58.34 13.3,1.4 17.97,50.98 16.22,64.28l0 0.35z"/>
  <path class="fil1" d="M768.69 403.87c3.55,4.83 5.2,10.8 4.64,16.77 -0.57,5.97 -3.32,11.52 -7.72,15.59 -4.4,4.07 -10.15,6.37 -16.14,6.47 -6,0.1 -11.82,-2.01 -16.35,-5.93 -9.22,-9.8 -34.3,-52.26 -24.5,-61.6 9.8,-9.33 50.75,18.43 60.08,28.23l0 0.46z"/>
  <path class="fil1" d="M839.85 571.4c2.37,2.15 4.3,4.75 5.67,7.65 1.37,2.9 2.16,6.04 2.31,9.24 0.16,3.2 -0.32,6.4 -1.4,9.42 -1.08,3.02 -2.74,5.79 -4.9,8.17 -2.15,2.37 -4.75,4.3 -7.65,5.67 -2.9,1.37 -6.04,2.16 -9.24,2.31 -3.2,0.16 -6.4,-0.32 -9.42,-1.4 -3.02,-1.08 -5.79,-2.74 -8.17,-4.9 -9.91,-8.98 -38.38,-49.46 -29.4,-59.38 8.98,-9.91 52.15,14.12 62.18,23.33l0 -0.11z"/>
  <path class="fil1" d="M965.85 477.95c3.6,5.22 5.02,11.64 3.96,17.9 -1.06,6.26 -4.51,11.85 -9.63,15.6 -5.12,3.75 -11.49,5.36 -17.78,4.49 -6.28,-0.88 -11.98,-4.17 -15.87,-9.18 -8.05,-10.85 -27.65,-56.12 -16.8,-64.05 10.85,-7.93 48.19,24.39 56.12,35l0 0.23z"/>
  <path class="fil1" d="M986.27 1070.37c-58.34,0 -87.62,-28.23 -113.75,-53.09 -23.33,-22.51 -42,-40.25 -81.66,-40.25 -39.67,0 -58.33,17.73 -81.66,40.25 -26.02,24.85 -55.53,53.09 -113.63,53.09 -58.1,0 -87.73,-28.23 -113.75,-53.09 -23.33,-22.51 -42,-40.25 -81.66,-40.25 -39.67,0 -58.34,17.73 -81.66,40.25 -26.02,24.85 -55.53,53.09 -113.63,53.09 -58.1,0 -87.61,-28.23 -113.63,-53.09 -20.53,-19.72 -38.38,-36.63 -70,-39.67 -6.19,-0.59 -11.89,-3.61 -15.85,-8.39 -3.96,-4.8 -5.86,-10.96 -5.27,-17.15 0.59,-6.2 3.61,-11.89 8.4,-15.86 4.79,-3.96 10.96,-5.85 17.15,-5.26 48.18,4.66 74.78,29.98 98.23,52.5 23.45,22.52 42,40.13 81.66,40.13 39.67,0 58.34,-17.73 81.66,-40.13 26.02,-24.97 55.53,-53.2 113.63,-53.2 58.1,0 87.61,28.23 113.75,53.2 23.33,22.4 42,40.13 81.66,40.13 39.67,0 58.33,-17.73 81.66,-40.13 26.02,-24.97 55.53,-53.2 113.63,-53.2 58.1,0 87.73,28.23 113.75,53.2 23.33,22.4 42,40.13 81.66,40.13 39.67,0 58.34,-17.73 81.67,-40.13 23.33,-22.4 50.04,-47.83 98.34,-52.5 6.2,-0.59 12.36,1.31 17.15,5.26 4.8,3.96 7.82,9.66 8.4,15.86 0.59,6.18 -1.3,12.35 -5.27,17.15 -3.96,4.79 -9.66,7.81 -15.85,8.39 -32.2,3.04 -49.93,19.95 -70,39.67 -26.13,24.85 -55.65,53.09 -113.75,53.09l-1.4 0z"/>
  <path class="fil1" d="M606.99 329.32l-2.1 0c-6.16,-0.56 -11.84,-3.55 -15.8,-8.29 -3.96,-4.74 -5.87,-10.87 -5.32,-17.02l25.78 -282.68c0.56,-6.19 3.55,-11.9 8.32,-15.88 4.77,-3.98 10.93,-5.91 17.12,-5.35 6.19,0.56 11.9,3.55 15.88,8.32 3.98,4.77 5.9,10.92 5.35,17.11l-26.01 282.91c-0.53,5.82 -3.22,11.22 -7.54,15.16 -4.32,3.93 -9.96,6.1 -15.8,6.08l0.12 -0.35z"/>
  <path class="fil1" d="M644.21 185.36c31.26,11.67 65.56,6.3 101.61,0 36.05,-6.3 73.96,-12.48 112.58,-1.75l8.05 -112.82c-31.27,-11.67 -65.57,-6.3 -101.5,0 -35.93,6.3 -74.08,12.37 -112.7,1.63l-8.05 112.81 0 0.12zm234.73 55.88c-4.1,0.03 -8.13,-1.06 -11.67,-3.15 -35,-19.83 -73.38,-13.3 -114.33,-6.42 -45.15,7.58 -96.25,16.22 -145.25,-11.67 -3.79,-2.18 -6.9,-5.38 -8.96,-9.24 -2.06,-3.85 -3,-8.22 -2.71,-12.58l11.67 -160.88c0.28,-3.93 1.55,-7.72 3.69,-11.02 2.14,-3.3 5.09,-6.01 8.56,-7.88 3.46,-1.92 7.36,-2.93 11.32,-2.93 3.96,0 7.85,1.01 11.32,2.93 35,19.84 73.26,13.3 114.22,6.42 45.15,-7.58 96.25,-16.1 145.25,11.67 3.81,2.19 6.93,5.41 8.99,9.29 2.07,3.88 2.99,8.27 2.67,12.65l-11.67 160.76c-0.14,3.91 -1.26,7.72 -3.26,11.08 -2,3.37 -4.81,6.17 -8.18,8.17 -3.37,1.82 -7.13,2.78 -10.97,2.8l-0.7 0z"/>
  <path class="fil1" d="M1135.6 767.39l-1086.61 0c-6.19,0 -12.12,-2.46 -16.5,-6.83 -4.38,-4.38 -6.83,-10.31 -6.83,-16.5 0,-6.19 2.46,-12.12 6.83,-16.5 4.38,-4.38 10.31,-6.83 16.5,-6.83l1086.61 0c6.18,0 12.13,2.46 16.5,6.83 4.37,4.38 6.83,10.31 6.83,16.5 0,6.19 -2.46,12.12 -6.83,16.5 -4.37,4.38 -10.31,6.83 -16.5,6.83z"/>
  <path class="fil1" d="M1135.6 910.31l-1086.61 0c-6.19,0 -12.12,-2.46 -16.5,-6.83 -4.38,-4.38 -6.83,-10.31 -6.83,-16.5 0,-6.19 2.46,-12.12 6.83,-16.5 4.38,-4.38 10.31,-6.84 16.5,-6.84l1086.61 0c6.18,0 12.13,2.46 16.5,6.84 4.37,4.38 6.83,10.31 6.83,16.5 0,6.18 -2.46,12.12 -6.83,16.5 -4.37,4.38 -10.31,6.83 -16.5,6.83z"/>
  <path class="fil1" d="M141.97 836.92l-64.63 0c-4.52,0 -8.85,-1.79 -12.04,-4.99 -3.19,-3.2 -4.99,-7.53 -4.99,-12.04 0,-4.52 1.8,-8.85 4.99,-12.04 3.19,-3.19 7.53,-4.99 12.04,-4.99l64.63 0c4.52,0 8.85,1.8 12.05,4.99 3.19,3.19 4.99,7.53 4.99,12.04 0,4.52 -1.79,8.85 -4.99,12.04 -3.2,3.19 -7.53,4.99 -12.05,4.99z"/>
  <path class="fil1" d="M331.55 836.92l-64.63 0c-4.52,0 -8.85,-1.79 -12.04,-4.99 -3.19,-3.2 -4.99,-7.53 -4.99,-12.04 0,-4.52 1.8,-8.85 4.99,-12.04 3.19,-3.19 7.53,-4.99 12.04,-4.99l64.63 0c4.52,0 8.85,1.8 12.04,4.99 3.19,3.19 4.99,7.53 4.99,12.04 0,4.52 -1.8,8.85 -4.99,12.04 -3.19,3.19 -7.53,4.99 -12.04,4.99z"/>
  <path class="fil1" d="M521.13 836.92l-64.63 0c-4.52,0 -8.85,-1.79 -12.04,-4.99 -3.19,-3.2 -4.99,-7.53 -4.99,-12.04 0,-4.52 1.8,-8.85 4.99,-12.04 3.2,-3.19 7.53,-4.99 12.04,-4.99l64.63 0c4.51,0 8.85,1.8 12.04,4.99 3.19,3.19 4.99,7.53 4.99,12.04 0,4.52 -1.8,8.85 -4.99,12.04 -3.19,3.19 -7.53,4.99 -12.04,4.99z"/>
  <path class="fil1" d="M710.71 836.92l-65.1 0c-4.52,0 -8.85,-1.79 -12.04,-4.99 -3.19,-3.2 -4.99,-7.53 -4.99,-12.04 0,-4.52 1.8,-8.85 4.99,-12.04 3.19,-3.19 7.53,-4.99 12.04,-4.99l64.63 0c4.52,0 8.85,1.8 12.04,4.99 3.19,3.19 4.99,7.53 4.99,12.04 0,4.52 -1.8,8.85 -4.99,12.04 -3.19,3.19 -7.53,4.99 -12.04,4.99l0.47 0z"/>
  <path class="fil1" d="M900.29 836.92l-64.63 0c-4.52,0 -8.85,-1.79 -12.04,-4.99 -3.19,-3.2 -4.99,-7.53 -4.99,-12.04 0,-4.52 1.79,-8.85 4.99,-12.04 3.19,-3.19 7.53,-4.99 12.04,-4.99l64.63 0c4.51,0 8.85,1.8 12.04,4.99 3.19,3.19 4.99,7.53 4.99,12.04 0,4.52 -1.8,8.85 -4.99,12.04 -3.19,3.19 -7.53,4.99 -12.04,4.99z"/>
  <path class="fil1" d="M1089.86 836.92l-64.62 0c-4.52,0 -8.86,-1.79 -12.05,-4.99 -3.19,-3.2 -4.99,-7.53 -4.99,-12.04 0,-4.52 1.8,-8.85 4.99,-12.04 3.19,-3.19 7.53,-4.99 12.05,-4.99l64.62 0c4.52,0 8.86,1.8 12.05,4.99 3.19,3.19 4.99,7.53 4.99,12.04 0,4.52 -1.8,8.85 -4.99,12.04 -3.19,3.19 -7.53,4.99 -12.05,4.99z"/>
 </g>
</svg>
