<?xml version="1.0" encoding="UTF-8"?>
<!DOCTYPE svg PUBLIC "-//W3C//DTD SVG 1.1//EN" "http://www.w3.org/Graphics/SVG/1.1/DTD/svg11.dtd">
<!-- Creator: CorelDRAW -->
<svg xmlns="http://www.w3.org/2000/svg" xml:space="preserve" width="83.4788mm" height="23.9012mm" version="1.1" style="shape-rendering:geometricPrecision; text-rendering:geometricPrecision; image-rendering:optimizeQuality; fill-rule:evenodd; clip-rule:evenodd"
viewBox="0 0 5245.24 1501.79"
 xmlns:xlink="http://www.w3.org/1999/xlink"
 xmlns:xodm="http://www.corel.com/coreldraw/odm/2003">
 <defs>
  <style type="text/css">
   <![CDATA[
    .fil2 {fill:#FF760C}
    .fil1 {fill:#D7D7D7;fill-rule:nonzero}
    .fil0 {fill:#DD0E0E;fill-rule:nonzero}
   ]]>
  </style>
 </defs>
 <g id="Camada_x0020_1">
  <metadata id="CorelCorpID_0Corel-Layer"/>
  <g id="logo-text-red.svg">
   <path class="fil0" d="M1081.18 0l-803.64 0c-153.28,0 -277.53,124.25 -277.53,277.53l0 803.64c0,153.28 124.26,277.53 277.53,277.53l803.64 0c153.28,0 277.53,-124.25 277.53,-277.53l0 -803.64c0,-153.28 -124.25,-277.53 -277.53,-277.53z"/>
   <path class="fil1" d="M2245.92 845.2c-1.46,60.02 -18.24,118.69 -48.78,170.39 -37.02,66.74 -95.37,119.11 -165.74,148.69 -69.59,26.99 -143.36,41.6 -218,43.18l-227.11 2.34 242.98 2.1c146.12,0 263.84,-48.78 353.15,-146.35 -80.9,103.02 -207.73,154.44 -380.47,154.29 -172.72,-0.16 -262.05,-0.86 -267.96,-2.1 -12.83,-12.14 -25.67,-24.74 -38.51,-37.58 -13.34,-10.84 -22.24,-26.21 -24.98,-43.19 -3.03,-52.99 -3.5,-123.24 -1.17,-210.07 2.18,-127.29 3.27,-198.01 3.27,-212.18 0,-30.34 0,-75.86 -3.96,-136.32 -3.96,-60.46 -3.96,-105.97 -3.96,-136.31 0,-40.14 0,-81.46 2.33,-123.71l9.1 1.17c13.53,31.12 21.31,129.86 23.34,296.2 3.42,-6.2 4.96,-13.25 4.43,-20.31 0,-3.73 -2.95,-145.33 -8.87,-424.81 4.32,9.02 7.31,18.6 8.87,28.48 0,30.35 1.95,76.17 5.84,137.49 10.51,59.3 17.67,119.15 21.47,179.26 0,9.8 0,23.34 -2.09,43.18 -2.1,19.84 -2.34,33.38 -2.34,43.19 10.51,-6.78 15.87,-12.61 15.87,-17.04l-1.17 -138.65c12.31,38.93 18.06,79.63 17.05,120.45l-3.98 136.31 15.88 382.57 0 -144.25c0,-12.84 -1.4,-31.98 -4.21,-57.89 -2.8,-25.91 -3.96,-45.05 -3.96,-57.89l0 -38.51 9.1 5.6 0 -7.94c0,-13.54 0,-32.45 -1.63,-56.25 -1.63,-23.81 -1.63,-41.78 -1.63,-53.92 -0.07,-18.57 1.02,-37.13 3.27,-55.56l5.84 -4.67c16.07,58.5 24.46,118.84 24.97,179.5 0,59.75 0,119.58 0,179.5 0,12.84 0,31.5 -2.32,56.25 -2.34,24.74 -2.34,42.95 -2.34,54.85l223.84 11.44c79.76,7.52 159.64,-12.95 225.95,-57.89 32.54,-22.62 58.79,-53.15 76.26,-88.72 17.48,-35.57 25.6,-75.01 23.64,-114.59 1.99,-44.14 -10.83,-87.68 -36.41,-123.71 -27,-34.07 -61.61,-61.33 -101.06,-79.59 0,-3.73 0,-12.37 -2.34,-26.14 -1.26,-8.66 -1.97,-17.39 -2.1,-26.14l0 -7.94 72.58 -70.02c19.69,-29.46 29.29,-64.52 27.31,-99.9 0.74,-36.85 -7.85,-73.27 -24.94,-105.91 -17.11,-32.64 -42.16,-60.45 -72.86,-80.82 -60.21,-42.9 -132.65,-65.24 -206.58,-63.72 -28.17,-1.99 -56.22,-5.42 -84.03,-10.27l32.92 0c67.5,-1.29 134.71,9.12 198.64,30.81 46.78,17.01 86.98,48.38 114.83,89.63 29.41,40.78 45.27,89.77 45.28,140.06 -0.55,44.29 -13.47,87.55 -37.34,124.87l0 2.1c30.03,-19.6 45.13,-61.93 45.28,-126.97 1.09,-56.94 -18.66,-112.31 -55.56,-155.69 -37.67,-42.93 -86.96,-74.06 -141.9,-89.63 -53.11,-10.93 -107.09,-17.02 -161.29,-18.2 -81.7,-5.45 -126.75,-10.74 -135.15,-15.88l13.55 -1.17 -105.51 -7.94c8.4,-9.1 45.52,-13.77 111.34,-13.77 27.31,0 60.92,0 101.07,3.49l66.98 2.34 -210.06 -9.1 -3.51 -4.67c8.21,-3.88 17.08,-6.18 26.14,-6.77l172.5 0c97.31,-4.3 193.32,23.68 273.1,79.6 38.35,27.74 69.22,64.56 89.85,107.18 20.6,42.61 30.31,89.68 28.25,136.97 -0.25,48.71 -11.91,96.68 -34.07,140.05 -2.46,-1.27 -5.17,-1.99 -7.92,-2.1 -6.79,0 -14.26,5.13 -23.34,15.87 -9.1,10.74 -16.58,21.01 -18.22,23.35 41.48,30.86 77.88,68.03 107.83,110.17 25.12,45.84 37.37,97.62 35.48,149.85zm-719.85 -552.03c-1.31,7.9 -3.19,15.71 -5.6,23.34l-13.77 -179.5c14.44,50.74 20.98,103.42 19.37,156.15zm11.44 161.29c-2.33,-8.17 -5.83,-20.77 -10.27,-37.35l4.44 -11.44c3.74,15.88 5.83,23.35 5.83,24.98l0 23.8zm32.92 676.91l0 -2.34c0.41,-2.87 -0.04,-5.79 -1.28,-8.41 -1.25,-2.61 -3.24,-4.81 -5.72,-6.3l0 17.04 7.01 0zm14.7 0l-9.1 -3.51 -3.5 3.51 12.6 0zm306.7 -4.67l-8.16 0c-9.76,0.99 -19.59,1.38 -29.41,1.17 -9.8,0 -78.66,-4.12 -206.57,-12.37 -5.37,0 -13.07,0 -23.35,0l-20.3 1.17 -2.8 -0.23 0 12.37 186.72 5.84 103.87 -7.94zm147.52 -305.3c0,74.22 -30.27,122.31 -90.79,144.25 -15.98,6.45 -32.81,10.63 -49.95,12.37l-40.62 -1.63c61.85,-6.07 104.8,-17.27 128.14,-34.07 30.35,-21.95 46.68,-61.16 46.68,-118.11 -0.02,-9.61 -1.59,-19.15 -4.66,-28.24 -5.13,60.38 -15.33,101.61 -30.57,123.71 -20.31,31.75 -59.53,46.69 -116.7,46.69 -27.33,0 -43.9,-3.74 -49.96,-11.21 -9.24,-1.67 -18.36,-3.93 -27.31,-6.77l-30.57 13.54 2.33 11.44c-6.47,-6.05 -14.6,-10.03 -23.35,-11.44l0 -6.77 -6.77 -6.77 -12.6 7.94 4.67 18.2 -5.6 -5.83 -2.33 3.51 -6.77 -7.94 0 -9.11 6.77 1.17 0 -3.26c-0.09,-5.37 -0.88,-10.71 -2.34,-15.87l-4.43 1.16 0 -12.6c1.28,0.01 2.54,-0.26 3.71,-0.77 1.17,-0.52 2.22,-1.28 3.08,-2.22 0.86,-0.94 1.51,-2.06 1.91,-3.28 0.4,-1.21 0.53,-2.49 0.4,-3.76 -0.19,-1.79 -1.02,-3.44 -2.33,-4.67 -9.81,0 -14.7,4.67 -14.7,13.55 0.23,4.8 0.93,9.56 2.09,14.23 1.12,3.9 1.9,7.88 2.34,11.91 0.55,2.62 0.55,5.32 0,7.94 -7.75,-5.57 -13.03,-13.94 -14.7,-23.34 -1.68,-10.1 -2.07,-20.38 -1.17,-30.58 1.63,-18.2 2.34,-27.77 2.34,-28.48 -0.75,-16.97 -3.01,-33.85 -6.77,-50.42 -3.85,-16.24 -6.19,-32.81 -7,-49.48 0,-58.35 18.59,-87.53 55.78,-87.53l34.07 0 34.09 0c-6.77,0 -19.84,-3.03 -38.75,-7 -12.29,-2.6 -24.79,-4.08 -37.35,-4.44 -11.24,0.57 -21.85,5.41 -29.64,13.54 -6.77,8.4 -14.01,16.81 -21.48,24.98l0 64.89c0.85,11.66 2.73,23.22 5.61,34.55 3.34,11.99 4.52,24.48 3.49,36.88l-10.27 0c0.41,12.24 1.89,24.42 4.44,36.41 -0.9,6.86 -3.21,13.45 -6.77,19.37 -18.91,-5.37 -28.24,-38.75 -28.24,-100.14 0.27,-7.82 0.97,-15.6 2.09,-23.34 1.29,-7.72 2.07,-15.52 2.34,-23.34 -0.51,-7.13 -1.84,-14.18 -3.96,-21.01 -2.05,-6.45 -3.39,-13.1 -3.97,-19.84 0,-17.5 23.34,-42.71 72.59,-76.09 4.67,1.72 48.63,8.56 131.89,20.54 44.41,4.63 87.34,18.55 126.03,40.85 18.28,13.04 32.97,30.5 42.67,50.74 9.73,20.24 14.15,42.61 12.89,65.03zm-56.72 -416.89c0,91.74 -46.69,137.49 -137.47,137.49 -13.57,-0.54 -26.96,-3.21 -39.69,-7.94 37.02,1.68 74.09,-1.78 110.17,-10.27 17.8,-4.88 33.2,-16.15 43.22,-31.65 10.03,-15.49 14.01,-34.14 11.17,-52.38l0 -20.31c-3.58,31.44 -16.59,61.06 -37.33,84.96 -24.56,19.01 -55.46,27.95 -86.37,24.98 -10.24,-0.3 -20.46,-1.23 -30.57,-2.8l-30.81 -3.96c-6.45,-7.31 -14.41,-13.13 -23.34,-17.04 -4.52,2.46 -8.68,5.52 -12.37,9.1 3.16,5.02 5.81,10.33 7.94,15.87 -1.64,-2.1 -4.91,-7.94 -10.27,-17.04l-12.6 5.84c4.6,2.98 8.19,7.29 10.27,12.37l-5.61 -5.6 0 5.6 -13.53 -12.37 0 -7.01 15.87 -5.6c-2.34,-3.74 -5.37,-9.1 -9.1,-15.88l0 11.44 -6.77 -7 0 -6.76 9.1 0c-2.41,-3.24 -3.64,-7.19 -3.51,-11.21 0.92,-7.35 2.4,-14.6 4.44,-21.71l-14.71 1.17c-1.5,2.38 -2.31,5.13 -2.34,7.94 0.31,4.43 1.09,8.81 2.34,13.07 1.28,3.85 2.06,7.85 2.33,11.91l-5.13 0c-9.8,0 -15.17,-7.47 -15.87,-24.98 1.63,28.01 2.34,16.34 2.34,-35.24 -0.79,-13.97 -3.06,-27.82 -6.77,-41.31 -3.79,-13.17 -6.13,-26.7 -7,-40.38 1.23,-11.75 5.58,-22.95 12.6,-32.45 8.4,-13.08 15.87,-19.84 23.34,-19.84 9,0.29 17.98,1.23 26.84,2.8 8.77,1.75 17.67,2.77 26.61,3.04 14.13,0.08 28.24,-1.49 42.02,-4.67 -51.59,-7.47 -78.89,-11.44 -81.7,-11.44 -12.81,1.37 -24.72,7.24 -33.61,16.58 -5.11,3.63 -9.42,8.28 -12.64,13.67 -3.22,5.38 -5.27,11.39 -6.04,17.61 -1.29,23.1 1.79,46.22 9.1,68.16l0 5.6 -10.27 1.17c0.17,5.17 0.72,10.32 1.63,15.41 0.97,5.4 1.53,10.86 1.64,16.34l0 9.1 -7.01 2.34c-17.27,-13.77 -25.91,-38.99 -25.91,-76.1 0,-37.12 23.34,-74.69 71.42,-119.28l20.54 -5.6c20.19,7.11 41.08,12.05 62.32,14.7 33.37,4.44 54.62,7.94 63.73,10.27 30.1,6.65 57.2,23.07 77.01,46.69 20.02,22.82 30.84,52.28 30.35,82.63zm-227.11 528.22l0 -26.37 -7 0 0 4.43c0,3.74 -3.04,7.7 -8.87,11.44 -5.84,3.73 -9.1,7.47 -9.1,11.44 8.14,-2.24 16.69,-2.56 24.97,-0.94zm9.1 6.77l0 -5.83 -27.31 3.51 4.44 7.94c7.78,-1.16 15.43,-3.04 22.87,-5.61zm3.27 -446.29c-4.08,-13.75 -7.13,-27.8 -9.1,-42.01l-3.27 14.7c2,2.63 3.14,5.81 3.27,9.1 0,7.47 -4.9,10.98 -14.71,10.27l10.27 4.44c-3.96,4.8 -8.17,9.39 -12.6,13.77l5.83 2.1c7.46,-2.88 14.33,-7.07 20.31,-12.37zm186.73 345.22c0.79,-8.21 -0.33,-16.49 -3.29,-24.18 -2.96,-7.7 -7.67,-14.6 -13.75,-20.16 -13.53,-9.1 -26.85,-18.22 -39.67,-27.31 -27.13,-3.07 -54.4,-4.55 -81.7,-4.44 -3.12,0.1 -6.23,-0.58 -9.04,-1.96 -2.81,-1.38 -5.23,-3.44 -7.06,-5.98 -4.17,-4.97 -7.92,-10.28 -11.21,-15.87l0 29.41c30.02,-0.15 59.99,2.11 89.64,6.77l2.34 4.66 -93.38 -5.83 0 132.81 -23.34 0c0.7,8.31 0.7,16.66 0,24.98l11.2 0c3.78,-0.6 7.61,-0.99 11.43,-1.17 0.93,-0.17 1.88,-0.11 2.78,0.18 0.9,0.28 1.72,0.77 2.38,1.44 0.67,0.67 1.16,1.48 1.45,2.38 0.28,0.9 0.34,1.85 0.18,2.77 -3.74,6.07 -12.15,8.41 -24.98,6.77l0 7.94 5.84 0c13.33,0.13 26.21,-4.69 36.18,-13.54 26.61,0 51.82,0 76.09,-3.5l-10.26 0c-17.42,0.8 -34.88,-0.3 -52.06,-3.27l-3.5 -5.84c16.96,-7.37 35.02,-11.94 53.45,-13.53 19.37,-1.61 38.23,-7 55.54,-15.87 8.79,-6.6 15.66,-15.41 19.93,-25.55 4.27,-10.12 5.77,-21.21 4.35,-32.1l0.47 0zm-182.06 -118.81c-2.41,3.14 -4.37,6.6 -5.84,10.27l3.51 -1.17 2.34 -9.1zm121.36 -297.6c-4.9,-16.47 -12.83,-31.9 -23.34,-45.52 -9.98,-1.73 -19.89,-4 -29.64,-6.77l-55.55 0 0 7.94c24.42,-1.38 48.89,0.99 72.6,7l3.49 3.27 -6.77 1.16c-9.71,-4.17 -20.25,-6.08 -30.81,-5.6 -6,0.06 -12.01,0.45 -17.97,1.17l-17.98 0 0 45.28c0,-6.08 2.34,8.63 6.78,44.35l43.17 0c17.06,-4.89 33.75,-10.98 49.95,-18.2 4.16,-10.64 6.22,-21.97 6.07,-33.38l0 -0.7zm-7.92 282.66l-61.4 0c7.7,0 23.34,1.4 50.19,4.44l11.21 -4.44zm-4.69 -381.86c-10.69,-5.35 -22.21,-8.82 -34.07,-10.27l-19.37 0c8.88,0.39 17.67,1.95 26.14,4.67 12.91,2.33 22.02,4.2 27.3,5.6zm23.34 53.45c-1.39,-6.07 -9.09,-12.84 -23.34,-20.54l-10.26 0c11.01,5.86 21.68,12.33 31.98,19.37l1.63 1.17zm32.91 386.07c-9.42,-8.77 -20.67,-15.37 -32.91,-19.37l-23.34 0c12.38,3.73 30.34,9.8 54.62,18.2l1.63 1.17zm11.44 -337.28l0 -8.87c-0.35,-9 -1.29,-17.97 -2.81,-26.84 -1.93,-7.19 -5.26,-13.94 -9.8,-19.85 6.83,17.35 10.53,35.76 10.98,54.38l1.63 1.18zm145.43 242.98c-40.16,-28.01 -65.14,-42.02 -74.93,-42.02l-2.34 0 77.27 42.02zm-42.02 -53.45l-13.77 -4.44 0 6.77 7.93 2.33 5.84 -4.67zm126.97 145.42c-7.16,-30.54 -21.21,-59.04 -41.07,-83.31 -19.87,-24.27 -45.01,-43.69 -73.55,-56.74l-10.27 6.77c29.54,12.52 56.11,31.14 77.97,54.61 21.24,21.71 36.81,48.33 45.28,77.5l1.63 1.17zm-59.98 -207.74l-56.96 0c12.12,9.1 23.34,17.74 36.4,26.14 7.45,-8.26 13.79,-17.44 18.92,-27.31l1.64 1.17zm104.32 297.6c-14.24,92.2 -41.31,162.22 -80.51,210.08 27.52,-27.18 47.83,-60.79 59.05,-97.81 13.08,-36.39 19.78,-74.77 19.84,-113.44l1.63 1.17zm-31.73 19.14l0 -56.02c-2.32,48.3 -9.52,96.24 -21.47,143.08 8.99,-28.82 15.63,-58.33 19.84,-88.22l1.63 1.16z"/>
   <path class="fil1" d="M2917.21 1172.22l-39.9 39.68 -146.36 0 -24.98 -25.44c-32.67,30.34 -81,45.51 -145.43,45.51 -96.77,0 -172.86,-30.26 -228.28,-90.79 -52.9,-58.36 -79.35,-135.61 -79.35,-231.79l0 -197.47c0,-83.25 0,-148.76 0,-196.53l3.51 -10.27c-8.41,6.06 -12.92,51.11 -13.55,135.14l0 -128.37 31.04 -30.58c8.28,-9.27 19.82,-14.96 32.22,-15.87 10.52,0 27.55,0 50.88,-1.64 23.34,-1.63 41.08,-1.87 52.99,-1.87 16.69,-1.14 33.27,3.74 46.69,13.77l36.17 36.18c0,22.17 0,50.88 0,86.36l0 268.42c0,83.25 29.17,124.96 87.52,125.11 58.13,0 87.07,-38.05 86.14,-113.67l-3.27 -292.93c-1.31,-13.6 1.04,-27.29 6.77,-39.69 6.28,19.09 9.72,38.98 10.27,59.06 1.4,21.01 3.03,42.24 4.44,63.49 1.63,-9.8 3.49,-35.25 5.84,-76.09 2.1,-45.52 2.79,-70.02 2.1,-76.09 6.08,-8.41 15.18,-19.61 27.31,-34.09l123.71 0c-10.17,4.1 -20.85,6.76 -31.76,7.94 -8.41,0 -19.37,0 -32.91,0l-32.92 0c-21.24,0 -34.77,5.6 -40.84,17.04l0 3.49 10.02 -11.43c88.7,-6.07 141.77,-8.33 159.19,-6.77 -28.16,4.71 -56.65,6.97 -85.2,6.77 -24.07,-0.62 -48.13,1.65 -71.66,6.77l-9.1 9.1c0,7.7 -1.87,18.91 -3.25,34.07 0,-6.06 -2.34,-15.41 -4.68,-28.24 -3.59,6.24 -5.91,13.15 -6.77,20.31 1.07,29.91 4.27,59.71 9.57,89.17 5.47,29.44 8.75,59.25 9.8,89.16 0,12.84 0,34.78 -1.16,65.83 -1.16,31.05 -1.87,49.95 0,65.82l0 8.86 11.45 -13.53 0 -156.62 11.2 146.36c0,148.45 -53.77,222.68 -161.3,222.68 -22.78,1.14 -45.48,-3.58 -65.91,-13.72 -20.42,-10.14 -37.91,-25.35 -50.79,-44.17 -24.74,-39.33 -36.29,-85.53 -32.92,-131.89l6.77 -308.8 -27.07 0c-4.1,12.42 -6.07,25.43 -5.84,38.51 1.12,34.56 4.94,68.97 11.44,102.94 6.37,33.9 10.21,68.22 11.43,102.69 -2.73,57.45 3.73,114.98 19.15,170.39 8.52,27.07 25.98,50.45 49.51,66.3 23.52,15.86 51.74,23.27 80.02,21 12.94,-0.81 25.81,-2.53 38.52,-5.13 19.84,-3.27 30.81,-5.13 32.92,-5.13l-2.1 5.84 2.1 0c10.03,0 23.34,-9.1 43.17,-27.31 14.14,-11.68 25.42,-26.45 32.91,-43.19 7.63,-22.72 17.89,-59.84 30.81,-111.34 3.3,9.52 4.8,19.57 4.44,29.64 2.66,49.07 -14.11,97.2 -46.68,133.99 -17.24,17.08 -37.84,30.34 -60.53,38.95 -22.66,8.61 -46.91,12.35 -71.13,10.99 -78.2,0 -129.54,-34.54 -154.51,-103.4 -13.86,-38.44 -20.7,-105.42 -20.55,-200.97 0,-14.47 0,-36.64 0,-66.99 0,-30.34 0,-52.98 0,-68.15 -0.98,-15.96 -4.27,-31.69 -9.8,-46.69 -4.44,-15.8 -11.13,-30.9 -19.84,-44.81 -7.48,0 -18.92,0 -34.09,-2.34l-5.6 338.45c-2.06,42.01 2.12,84.1 12.38,124.87 15.68,46.43 48.14,85.31 91.03,109.01 41.16,25.82 88.68,39.64 137.26,39.91 29.26,1.72 58.5,-3.74 85.2,-15.87 22.61,-17.76 43.2,-37.96 61.38,-60.22l38.52 10.03c-0.46,2.32 -0.46,4.72 0.04,7.03 0.51,2.32 1.46,4.51 2.85,6.44 1.37,1.92 3.12,3.54 5.17,4.76 2.02,1.22 4.29,2 6.65,2.31 -0.62,4.73 -2.24,9.26 -4.79,13.28 -2.55,4.03 -5.92,7.46 -9.92,10.05l0 7.01c36.4,2.8 70.03,4.44 102.22,4.44l18.22 -443.49 -7.95 443.49 3.28 0c5.15,-18.08 7.91,-36.76 8.17,-55.55 2.1,-32.68 3.26,-53.45 3.26,-62.55l2.34 -364.6c0,-13.55 2.34,-34.09 4.44,-61.16l2.32 0c4.59,-25.48 6.47,-51.38 5.6,-77.25 -0.41,-7.78 -0.41,-15.57 0,-23.35 7.83,24.58 11.32,50.33 10.29,76.09 0,29.41 0,70.03 0,119.05 0,60.68 -1.18,89.86 -1.18,87.53l5.85 -205.65 4.44 -2.09c1.76,5.93 2.94,12.03 3.51,18.2l-2.59 566.27zm-634.88 -160.12c-7.92,-80.36 -11.75,-161.07 -11.44,-241.82l0 156.62c1.4,28.67 5.22,57.17 11.44,85.2zm18.21 -20.31l-5.6 -128.38 0 70.03 5.6 58.35zm187.66 -475.93c-13.02,-19.93 -30.42,-36.62 -50.89,-48.79l-63.71 0 -20.31 4.44c70.02,9.8 112.98,24.74 130.47,44.35 1.63,52.98 1.88,118.81 0,197.7l4.44 -197.7zm212.4 598.47c-34.77,42.48 -88.46,62.79 -161.27,61.38 5.15,0.01 10.3,0.4 15.39,1.17 4.74,0.25 9.5,0.25 14.24,0 49.25,0 84.73,-10.03 106.67,-30.57 7,-8.53 14.82,-16.34 23.34,-23.34l1.63 -8.64zm116.73 46.68c-7.39,-1.29 -14.63,-3.17 -21.72,-5.6l-43.18 0 2.32 3.5c16.97,1.93 34.06,2.63 51.12,2.1l11.45 0z"/>
   <path class="fil1" d="M3346.48 514.69c-1.45,29.67 -6.47,59.06 -14.95,87.53 -10.41,41.55 -22.08,66.52 -35.01,74.93 -30.06,0.43 -59.12,11.05 -82.39,30.11 -17.44,23.76 -25.72,53.02 -23.34,82.39 0,10.51 -1.87,31.75 -3.28,63.49 -2.09,20.79 -2.88,41.68 -2.32,62.56l5.6 185.09c3.05,34.22 -6.21,68.41 -26.14,96.4l-2.1 7.94c6.9,-4.2 13.3,-9.13 19.15,-14.7 8.4,-7.7 12.61,-12.84 12.61,-15.87l2.1 -218.01 2.32 218.01c-13.62,22.93 -33.23,41.73 -56.71,54.39l-2.33 -3.27 -147.53 0c-15.25,-10.18 -29.34,-22 -42.02,-35.24 -9.89,-15.11 -14.33,-33.14 -12.59,-51.12l3.48 -228.28c0,-23.34 -1.16,-60.45 -3.48,-109 -2.34,-48.55 -3.28,-84.73 -3.28,-109 -1.42,-26.92 -0.02,-53.9 4.2,-80.53l5.6 4.43c12.47,61.44 18.28,124.05 17.29,186.73 2.06,-5.01 2.87,-10.47 2.32,-15.87 0,-25.91 -1.4,-70.03 -4.44,-133.99 -3.95,-56.95 -5.36,-101.54 -4.66,-133.98 8.13,12.02 12.14,26.35 11.45,40.85 0,28 -1.18,42.24 -1.18,43.18 0,6.77 4.91,33.62 12.38,80.53 4.91,26.58 7.62,53.5 8.17,80.53l0 30.81 7 -6.77c2.14,-5.82 3.17,-12 3.04,-18.21 0,-8.4 -0.72,-20.53 -2.1,-36.41 -1.64,-15.87 -2.34,-28 -2.34,-36.41l4.19 0c5.45,18.53 8.58,37.66 9.36,56.95 0,16.58 0,37.82 0,63.49l0 57.89c0,23.34 1.63,63.73 4.66,122.78 2.1,51.35 3.04,91.97 2.1,121.38l2.34 1.17 1.17 -1.17c0,-7.47 1.16,-20.78 1.16,-39.69 0,-18.91 -1.16,-44.35 -3.51,-80.76 -2.32,-36.41 -3.27,-63.49 -3.27,-81.7l6.77 1.17c0,-8.41 0,-20.54 -1.16,-36.88 -1.17,-16.33 -1.17,-28.48 -1.17,-36.88 -0.79,-14.33 1.53,-28.66 6.77,-42.02 17.59,36.25 23.66,142.62 18.2,319.08 23.12,4.16 46.54,6.42 70.03,6.77l5.6 -299.71c0.71,-36.03 5.32,-71.87 13.76,-106.9 7.76,-29.7 25.06,-56.02 49.25,-74.93 22.01,-20.74 50.99,-32.48 81.23,-32.91l6.77 0c9.1,0 13.77,-17.04 13.77,-51.12 0,-21.94 -1.65,-43.88 -2.34,-65.82l-12.6 0c-15.87,0.3 -31.61,2.97 -46.69,7.94 -15.51,3.93 -29.13,13.18 -38.52,26.14l0 29.64 -9.1 -1.16 0 9.1 -14.94 0c0,0 -9.33,-1.87 -25.91,-5.84l-1.16 -9.1c-16.82,-8.87 -25.46,-13.53 -26.15,-13.53 8.17,-12.14 16.58,-23.35 24.97,-34.08l-19.37 -3.27 11.2 0c8.17,0 13.55,0 15.87,-4.67 -30.15,-1.84 -60.19,-5.66 -89.86,-11.44l9.1 0c-15.17,0 -37.34,-2.8 -66.99,-5.83l10.27 -7.94 138.65 0c-16.8,-3.66 -33.92,-5.54 -51.11,-5.6 -29.64,0 -46.69,0 -53.45,-1.17l0 -3.5c11.78,-3.68 24.05,-5.57 36.4,-5.6l68.17 0 21.47 21.47c25.69,-27.07 71.65,-40.85 137.48,-40.85 13.09,10.22 25.57,21.21 37.36,32.92 9.83,12.11 15.04,27.33 14.7,42.95zm-365.76 85.2l-5.13 14.7 -11.91 -116.71c10.36,33.06 16.09,67.38 17.05,102zm158.96 616.68c-11.98,2.84 -24.15,4.71 -36.42,5.6l-103.16 -5.6 139.58 0zm29.63 -250.92l0 -135.15c-3.24,44.99 -3.24,90.15 0,135.15zm107.85 -478.27l-13.76 0c-15.57,0.83 -30.9,4.3 -45.28,10.27 -15.05,4.16 -28.73,12.21 -39.7,23.34 22.26,-16.31 48.61,-26.08 76.1,-28.24 7.84,-0.29 15.53,-2.12 22.65,-5.37zm-3.5 133.99l-10.26 0c-19.43,2.85 -38.22,9 -55.57,18.2 21.25,-8.37 43.31,-14.47 65.83,-18.2z"/>
   <path class="fil1" d="M4017.54 1116.43c1.68,52.65 -8.22,105.04 -29.05,153.44 -20.82,48.4 -52.01,91.64 -91.38,126.65 -79.04,70.88 -182.39,108.51 -288.51,105.04 -72.92,-0.05 -143.85,-23.99 -201.91,-68.16 -60.31,-43.06 -106.92,-102.63 -134.19,-171.56 6.79,-13.03 14.59,-25.52 23.34,-37.34 4.69,-5.72 10.66,-10.25 17.42,-13.21 6.78,-2.97 14.16,-4.28 21.56,-3.83l107.36 6.77 -4.44 -4.43c-55.92,-39.08 -103.05,-89.41 -138.41,-147.76 -32.18,-60.41 -48.26,-128.1 -46.68,-196.53 -0.52,-50.37 9.15,-100.33 28.46,-146.86 19.3,-46.53 47.8,-88.68 83.81,-123.9 34.56,-36.57 76.3,-65.59 122.63,-85.22 46.3,-19.65 96.19,-29.49 146.49,-28.93 66.54,-0.06 131.36,21.04 185.1,60.23 8.41,-1.4 13.3,-7.94 14.95,-19.37l104.33 0c-31.27,6.7 -63.3,9.21 -95.22,7.47l-11.45 5.37 0 2.1 145.43 -4.67c-45.6,3.12 -95.63,9.19 -150.1,18.21 22.02,17.3 39.21,39.96 49.95,65.82 -18.56,14.21 -40.38,23.59 -63.48,27.31l-2.33 -3.51 -6.77 3.51 -4.42 -3.51 -18.2 3.51 5.6 -13.54 4.42 7.94 4.68 0c9.1,0 13.53,-11.44 13.53,-34.08 0,-12.84 -13.53,-26.14 -40.84,-39.91l-3.28 -2.1 0 2.1c-17.24,-8.19 -35.67,-13.55 -54.61,-15.88l6.76 4.67c-16.84,-3.51 -33.94,-5.77 -51.12,-6.77 -88.2,-3.23 -174.7,24.89 -244.14,79.36 -34.02,27.77 -61.14,63.05 -79.24,103.06 -18.12,40.01 -26.69,83.67 -25.11,127.56 -1.46,87.3 28.35,172.24 84.04,239.49 26.25,34.28 60.11,61.98 98.92,80.9 38.82,18.92 81.51,28.54 124.69,28.09 28.71,-0.3 57.17,-5.67 84.02,-15.87 27.48,-7.14 51.59,-23.64 68.17,-46.69 -41.53,37.82 -96.05,58.14 -152.19,56.72 -42.02,0.12 -83.49,-9.37 -121.28,-27.73 -37.78,-18.37 -70.86,-45.13 -96.73,-78.23 -54.93,-64.21 -84.77,-146.12 -84.04,-230.62 -3.15,-56.32 11.56,-112.19 42.02,-159.65l2.34 10.27c17.38,-30.94 40.05,-58.59 66.99,-81.69 37.03,-35.02 66.21,-50.57 87.53,-46.69l-3.51 5.84c-113.43,70.18 -170.23,163.54 -170.38,280.1 0,124.49 49.25,212.33 147.75,263.53 42.17,24.91 89.57,39.69 138.42,43.18 62.08,0 117.86,-30.35 166.89,-90.79l72.82 31.74 0 7.93c0,2.34 -5.37,23.34 -15.87,61.39 -12.18,49.14 -41.88,92.15 -83.57,120.91 -42.28,28.67 -92.47,43.44 -143.55,42.25 -30.93,0.62 -61.61,-5.6 -89.86,-18.22 -26.67,-13.99 -52.47,-29.58 -77.25,-46.68l-104.34 -2.34 -1.16 2.34c25.4,50.36 67.01,90.72 118.11,114.61 48.95,27.35 104.05,41.8 160.11,42.02 76.64,-0.34 150.6,-28.17 208.44,-78.43 60.01,-46.67 100,-114.44 111.82,-189.54 8.32,-64.4 12.44,-129.27 12.36,-194.2 0.94,-64.42 1.71,-129.15 2.34,-194.2l-3.27 336.11c-0.32,43.19 -9.65,85.84 -27.37,125.21 -17.72,39.39 -43.46,74.65 -75.57,103.54 -62.55,61.26 -146.8,95.32 -234.35,94.77 -43.56,-0.56 -86.66,-9.02 -127.22,-24.98l-4.66 0c43.12,22.63 91.4,33.58 140.04,31.74 76.34,-0.04 150.13,-27.46 207.98,-77.27 60.17,-47.31 101.56,-114.5 116.71,-189.52 4,-19.87 6.64,-40 7.94,-60.23 0,-76.56 1.63,-152.89 2.34,-229.44 -0.21,-76.66 3.92,-153.26 12.37,-229.45l2.34 0c4.21,-17.09 5.71,-34.73 4.42,-52.29 -0.67,-20.8 0.09,-41.63 2.34,-62.32 6.69,29 9.76,58.71 9.1,88.46 0,34.07 0,80.06 0,137.48l0 101.07 5.6 -239.72 4.44 0c1.78,5.54 2.96,11.25 3.51,17.04l-1.65 461zm-135.14 -242.06c0.92,30.72 -4.23,61.31 -15.17,90.04 -10.95,28.71 -27.43,54.99 -48.56,77.32 -21.19,22.16 -46.82,39.58 -75.22,51.13 -28.41,11.54 -58.93,16.95 -89.56,15.87 -29.66,1.17 -59.18,-4.07 -86.62,-15.34 -27.42,-11.28 -52.1,-28.34 -72.35,-50.02 -40.74,-45.2 -62.34,-104.45 -60.23,-165.26 -0.6,-41.44 11.28,-82.1 34.09,-116.71 23.32,-34.03 58.54,-58.11 98.72,-67.45 -37.17,16.22 -70.13,40.73 -96.4,71.66 -23.09,33.18 -34.65,73.04 -32.91,113.43 -1.82,35.58 6.27,70.97 23.34,102.24 0,0 -3.25,-14.94 -9.58,-42.71 -5.11,-18.7 -8.39,-37.85 -9.79,-57.19 -0.02,-45.94 15.36,-90.56 43.64,-126.74 12.14,-17.58 28.35,-31.97 47.24,-41.93 18.91,-9.95 39.94,-15.19 61.29,-15.26l43.18 4.44c10.24,-3.41 20.98,-4.91 31.76,-4.44 10.45,-0.55 20.92,0.96 30.81,4.44l-37.57 0c-36.24,1.21 -71.67,10.98 -103.4,28.48l2.32 0c14.16,-6.17 29.07,-10.41 44.36,-12.61l12.36 1.17 -4.44 5.6c-80.99,24.51 -121.59,73.76 -121.59,148.22 -0.84,42.11 14.63,82.92 43.18,113.9 12.94,16.12 29.37,29.1 48.05,38 18.68,8.88 39.09,13.45 59.78,13.35 28.74,-1.26 56.68,-9.77 81.22,-24.74 29.88,-16.58 45.3,-34.31 46.69,-53.69 -34.07,46.69 -74.22,70.03 -120.43,70.03 -9.14,-0.57 -18.23,-2.05 -27.07,-4.44l13.52 0c19.35,1.53 38.78,-1.1 57.02,-7.7 18.25,-6.6 34.87,-17.03 48.75,-30.58 13.88,-13.55 24.71,-29.91 31.75,-47.99 7.04,-18.08 10.13,-37.45 9.07,-56.82 1.61,-30.17 -6.57,-60.06 -23.34,-85.2 -20.68,-22.77 -45.27,-41.66 -72.6,-55.79 3.74,-5.13 7.48,-7.94 11.45,-7.94 14.65,1.06 28.87,5.39 41.63,12.65 12.77,7.27 23.75,17.3 32.12,29.36l0 -2.1c-15.3,-18.59 -34.7,-33.38 -56.72,-43.18 -22.41,-8.65 -46.03,-13.69 -70.02,-14.94 1.87,-2.37 4.3,-4.23 7.08,-5.42 2.77,-1.18 5.79,-1.65 8.8,-1.35 12.89,0.26 25.76,1.44 38.52,3.5 19.84,2.34 32.67,3.27 38.74,3.27l-7.94 -3.27c3.43,-0.1 6.86,0.57 10,1.93 3.15,1.38 5.94,3.43 8.21,6.01l-10.27 -2.34c10.34,3.58 19.84,9.27 27.88,16.69 8.04,7.43 14.44,16.46 18.81,26.48l5.82 -10.26c-1.56,-6.07 -15.55,-18.91 -42,-38.52 30.1,3.74 56.01,28.24 77.01,73.76 16.65,34.38 25.59,71.98 26.16,110.17 -1.9,37.1 -15.82,72.59 -39.68,101.07 -22.27,29.27 -50.02,53.93 -81.7,72.59l-1.17 3.51c37.43,-14.27 69.56,-39.67 92.09,-72.76 22.54,-33.09 34.39,-72.31 33.96,-112.34 -0.53,-11.92 -2.41,-23.74 -5.6,-35.24 -3.29,-11.1 -5.24,-22.54 -5.84,-34.09l0 -6.77 4.68 1.17 -31.05 -69.79 5.6 0c14.48,0 28.49,18.67 42.02,55.78 9.33,24.29 14.76,49.89 16.11,75.86l0 -0.24zm-220.34 416.88l-4.44 0 -28.47 1.17c-45.47,0.32 -89.34,-16.8 -122.55,-47.85 14.97,16.37 33.23,29.39 53.58,38.2 20.36,8.82 42.35,13.21 64.54,12.92l37.35 -4.44zm148.68 -726.85c-37.83,-41.55 -95.31,-62.33 -172.49,-62.33 -44.33,0.71 -88.16,9.16 -129.56,24.98l3.5 1.16c39.3,-14.41 80.7,-22.3 122.55,-23.34 63.96,-1.97 126.45,19.26 176,59.76l0 -0.23zm-70.02 -17.05c-35.33,-12.92 -72.57,-19.79 -110.19,-20.3 -34.77,2.41 -69.33,7.32 -103.39,14.7l17.03 5.6c15.7,-0.6 31.3,-2.47 46.69,-5.6 15.39,-3.12 31,-4.99 46.68,-5.6 24.84,0.35 49.59,3.41 73.77,9.1l-2.34 -4.67c10.63,1.67 21.16,4 31.5,7l0.25 -0.23zm-29.66 697.22c-27.58,8.56 -56.31,12.81 -85.2,12.6 -28.7,-0.97 -57.21,-5.19 -84.95,-12.6 27.89,10.57 57.45,16.03 87.29,16.1 28.44,1.85 56.9,-3.62 82.63,-15.87l0.23 -0.23zm13.77 7c-26.87,8.68 -54.68,14.01 -82.86,15.87 -26.23,0.37 -52.43,-1.19 -78.43,-4.67 19.5,9.31 40.75,14.4 62.32,14.94 34.81,-0.09 69.02,-9.01 99.44,-25.91l-0.47 -0.24zm88.48 -32.91c-13.69,24.56 -32.75,45.71 -55.73,61.87 -23,16.17 -49.34,26.93 -77.08,31.49l7.94 0c26.11,-2.84 50.65,-13.96 70.02,-31.74 22.66,-16 41.36,-37 54.6,-61.39l0.25 -0.23z"/>
   <path class="fil1" d="M4813.48 847.53c1.78,20.84 -2.51,41.77 -12.37,60.23 -13.82,14.26 -28.64,27.52 -44.34,39.67 17.49,25.67 26.13,38.99 26.13,39.69 0,14.46 -19.69,43.25 -59.05,86.36 -24.6,28 -51.54,53.85 -80.54,77.27 -65.91,46.14 -144.56,70.61 -225.01,70.02 -78.05,1.12 -154.4,-22.67 -218,-67.92 -63.49,-45.83 -113.01,-108.37 -143.08,-180.66 -15.9,-47.16 -22.8,-96.89 -20.31,-146.59 -2.12,-53.76 7.55,-107.33 28.33,-156.96 20.75,-49.63 52.11,-94.13 91.87,-130.37 81.56,-71.18 187.05,-108.87 295.27,-105.5 -6.76,-0.43 -13.54,-0.43 -20.3,0 -120.46,0 -215.84,36.73 -286.17,110.18 -66.14,68.16 -106.29,163.15 -120.45,285l0 -14.94c-1.67,-50.87 7.68,-101.5 27.37,-148.42 19.71,-46.94 49.31,-89.07 86.77,-123.5 35.85,-37.11 78.82,-66.58 126.36,-86.64 47.53,-20.05 98.64,-30.28 150.22,-30.07 54.53,-1.77 108.79,8.39 158.97,29.76 50.2,21.37 95.12,53.43 131.64,93.95 72.25,82.69 110.37,189.73 106.67,299.47zm-705.15 178.09c-39.25,-69.84 -58.47,-149.15 -55.54,-229.22l-1.16 70.03c1.87,28.87 8.41,57.25 19.37,84.03 7.16,27.35 19.87,52.93 37.33,75.15zm612.03 -185.09c-0.7,-61.7 -17.96,-122.07 -49.96,-174.83 -28.1,-55.48 -75.26,-98.97 -132.8,-122.54 -44.71,-14.24 -91.53,-20.8 -138.42,-19.37 -39.75,-0.91 -79.18,6.98 -115.51,23.12 -36.32,16.14 -68.62,40.14 -94.56,70.24 -52.7,59.78 -81.02,137.17 -79.37,216.85 -0.45,42.11 7.57,83.88 23.63,122.83 16.04,38.94 39.75,74.25 69.74,103.81 28.83,30.43 63.64,54.56 102.24,70.88 38.6,16.31 80.16,24.45 122.07,23.9 58.55,0.41 116.01,-15.78 165.72,-46.68 50.76,-31.18 92.96,-74.5 122.78,-126.05l-147.75 -3.5c-24.45,15.96 -49.86,30.38 -76.09,43.17 -27.09,6.69 -55,9.37 -82.86,7.94 -12.75,-0.03 -25.4,-2.32 -37.35,-6.77 16.31,-0.07 32.61,1.02 48.78,3.27 68.15,0 117.03,-18.52 146.58,-55.55 -21.24,11.44 -42.02,23.34 -62.08,34.07 -23.6,12.25 -50,18.11 -76.56,17.03 -25.01,1.36 -50,-3.05 -73.02,-12.88 -23.02,-9.83 -43.48,-24.83 -59.8,-43.83l5.6 0c-14.74,-14.59 -27.03,-31.45 -36.41,-49.95 -5.15,1.47 -10.49,2.26 -15.87,2.33l-7.95 0 0 -1.17 21.72 -5.6c-2.6,-4.5 -4.2,-9.52 -4.66,-14.7 -0.36,-2.24 -0.36,-4.52 0,-6.77 6.07,2.1 10.96,9.1 14.7,20.3 78.88,-3.73 121.14,-5.6 127.22,-5.6 7,-0.24 13.99,0.95 20.53,3.51l-143.08 7.93 2.34 4.44 6.76 0c15.87,0 36.17,0 61.16,0 32.67,-1.63 52.97,-2.33 61.39,-2.33l72.82 -11.2c45.41,-6.84 91.34,-9.57 137.26,-8.17l96.62 3.49 -13.77 -11.44c-20.38,-1.4 -70.34,-1.4 -149.84,0l4.67 -3.27c63.49,-7.7 104.32,-11.44 122.53,-11.44 12.57,-0.16 25.14,0.62 37.57,2.34 0.9,-6.2 1.45,-12.43 1.65,-18.68 1.63,-7.94 1.63,-14.47 1.63,-19.13zm29.64 -19.14c-3.24,-87.25 -39.34,-170.04 -101.09,-231.77 -61.72,-61.73 -144.52,-97.84 -231.76,-101.08 -41.14,-0.91 -82.03,6.69 -120.12,22.31 -38.06,15.63 -72.51,38.94 -101.16,68.49 55.09,-54.47 129.63,-81.7 223.62,-81.7 50.75,-0.16 100.78,11.94 145.86,35.26 45.05,23.33 83.83,57.2 112.99,98.72 13.7,17.94 25.89,36.99 36.42,56.95 11.91,18.55 19.87,39.38 23.34,61.16l-1.16 4.67 -4.44 -2.34 0 5.6c0.33,13.15 1.66,26.26 3.96,39.21 2.17,12.18 3.5,24.51 3.96,36.88 0.06,8.84 -1.13,17.63 -3.49,26.14l11.43 0c1.38,-12.79 1.92,-25.65 1.63,-38.51zm-145.4 -89.87c-2.05,3.01 -4.74,5.51 -7.91,7.29 -3.14,1.78 -6.69,2.8 -10.3,2.98 -0.76,6.82 -0.76,13.72 0,20.54 -2.46,0.08 -4.85,-0.77 -6.7,-2.36 -1.85,-1.6 -3.05,-3.84 -3.34,-6.28 -1.63,-5.6 -4.2,-8.4 -8.17,-8.4l-3.28 7.94c-6.16,-4.78 -11.54,-10.54 -15.87,-17.03 -6.53,4.32 -13.41,8.15 -20.53,11.44l4.67 0 -5.84 7 -7.92 -2.34 9.1 -3.5 -46.68 0c1.39,7.7 3.04,11.44 4.42,11.44 1.41,0 15.89,-1.17 34.1,-3.49l2.32 4.66c-22.24,5.76 -45.22,8.04 -68.16,6.77 -15.68,0.48 -31.28,2.2 -46.68,5.13 -14.97,2.77 -30.08,4.49 -45.28,5.14 -14.46,-0.5 -28.89,-1.82 -43.2,-3.97 -14.67,-2.3 -29.49,-3.63 -44.34,-3.96 -12.5,-0.37 -25,0.33 -37.35,2.1 26.97,4.88 54.31,7.54 81.7,7.94 12.77,0 31.68,-0.94 56.72,-2.8 24.97,-1.87 43.65,-2.8 55.79,-2.8l-2.32 5.6c5.11,0.27 10.27,0.27 15.4,0 5.01,-0.76 10.09,-1.15 15.17,-1.16 6.46,0.12 12.77,2.06 18.21,5.6 -6.07,12.13 -25.68,18.9 -59.06,20.53 20.55,-1.63 -1.39,-2.33 -65.81,-2.33 -6.93,0.3 -13.81,1.23 -20.55,2.8 -6.67,1.55 -13.48,2.48 -20.31,2.8 -12.82,-0.52 -25.55,-2.24 -38.05,-5.13 -17.05,-3.27 -29.41,-5.37 -36.88,-6.07l-42 -56.95c18.22,-41.19 46.75,-76.96 82.86,-103.87 37.44,-23.04 80.96,-34.27 124.87,-32.21 90.72,0 151.65,34.39 182.76,103.17 -43.88,-65.82 -99.51,-98.74 -166.89,-98.74 -12.55,-0.62 -25.12,0.57 -37.34,3.51 40.72,1.97 81.07,8.78 120.21,20.3 36.95,18.95 65.96,50.38 81.92,88.7l12.38 0c-3.93,4.1 -7.38,8.65 -10.28,13.54 6.3,-0.26 12.49,-1.44 18.45,-3.51zm-338.47 -40.85c-6.86,3.85 -12.7,9.29 -17.03,15.88l7 0 10.03 -15.88zm61.41 -17.04l-6.79 0c-7.23,2.4 -13.9,6.26 -19.55,11.37 -5.68,5.1 -10.21,11.33 -13.36,18.27 11.67,-12 25.05,-22.22 39.7,-30.34l0 0.69zm236.2 250.92l-275.9 4.66c26.3,46.69 74.39,69.41 144.27,68.16l11.2 0c-71.89,0 -120.28,-20.85 -145.18,-62.55l0 -2.1 56.95 33.38c19.67,11.23 42,16.95 64.65,16.58 36.31,2.19 72.18,-8.75 101.06,-30.81 -32.96,0.77 -65.96,-0.72 -98.72,-4.44l-3.51 -3.5c21.95,-7.57 44.94,-11.75 68.16,-12.37 23.34,0 46.68,-1.86 70.02,-3.5l7.01 -3.5zm-44.34 -224.78c-28.12,-20.24 -61.78,-31.32 -96.4,-31.74 -20.63,0.06 -40.99,4.52 -59.76,13.07 -19.15,8.64 -38.29,17.27 -57.19,25.45l127.22 0 86.13 -6.77zm206.8 282.9l-6.77 0c-30.3,55.31 -75.62,100.94 -130.72,131.65 -53.44,34.01 -116.24,50.35 -179.48,46.68 10.21,1.41 20.5,2.19 30.8,2.34 59.92,-0.6 118.37,-18.77 168.07,-52.29 49.98,-31.64 90.72,-75.93 118.09,-128.37zm-183.93 -257.92l-2.34 -5.6 -6.76 0c-9.26,0.33 -18.43,1.82 -27.31,4.44 -15.17,3.03 -23.34,4.91 -27.31,5.83l23.34 0c2.34,0 17.04,-1.63 40.38,-4.66zm20.31 172.73c-21.24,2.1 -37.11,3.26 -46.68,3.26 7.55,-2.73 15.38,-4.6 23.34,-5.6l23.34 2.34zm155.69 76.09l-66.05 0c13.05,0 31.97,1.17 56.95,3.27l9.1 -3.27z"/>
   <path class="fil1" d="M5245.07 514.69c-1.33,29.66 -6.27,59.06 -14.7,87.53 -10.74,41.55 -23.35,66.52 -35.24,74.93 -30.08,0.43 -59.12,11.05 -82.41,30.11 -17.42,23.76 -25.72,53.02 -23.34,82.39 0,10.51 -2.09,31.75 -3.5,63.49 -2.1,20.79 -2.88,41.68 -2.32,62.56l5.82 185.09c2.96,34.21 -6.3,68.37 -26.13,96.4l-2.34 7.94c6.97,-4.18 13.47,-9.12 19.37,-14.7 8.17,-7.7 12.38,-12.84 12.38,-15.87l2.32 -218.01 2.34 218.01c-13.69,22.96 -33.38,41.77 -56.95,54.39l-2.09 -3.27 -147.77 0c-15.25,-10.18 -29.33,-22 -42.02,-35.24 -9.91,-15.09 -14.29,-33.16 -12.37,-51.12l3.28 -228.28c0,-23.34 -1.17,-60.45 -3.28,-109 -2.1,-48.56 -3.5,-84.74 -3.5,-109.01 -1.56,-26.92 -0.08,-53.94 4.44,-80.53l5.35 4.43c12.47,61.44 18.34,124.05 17.51,186.73 1.83,-5.08 2.55,-10.49 2.1,-15.87 0,-25.91 -1.4,-70.03 -4.44,-133.99 -3.72,-56.95 -5.35,-101.53 -4.42,-133.98 7.85,12.13 11.77,26.4 11.2,40.85 0,28 -1.17,42.24 -1.17,43.18 0,6.77 4.91,33.62 12.6,80.53 4.84,26.58 7.5,53.51 7.94,80.53l0 30.81 8.64 -6.07c2.02,-5.86 3.05,-12.01 3.03,-18.2 0,-8.41 0,-20.54 -2.34,-36.41 -2.32,-15.88 -2.32,-28.01 -2.32,-36.41l4.19 0c5.55,18.51 8.75,37.64 9.58,56.95 0,16.58 0,37.81 0,63.49l0 57.89c0,23.34 1.41,63.72 4.44,122.78 2.32,51.35 3.04,91.96 2.32,121.37l2.34 1.17 0 -1.17c0.66,-13.22 0.66,-26.47 0,-39.69 0,-17.5 0,-44.34 -3.28,-80.75 -3.25,-36.41 -3.5,-63.49 -3.5,-81.7l6.78 1.17c0,-8.4 0,-20.54 0,-36.88 0,-16.34 0,-28.48 0,-36.88 -0.9,-14.33 1.43,-28.68 6.76,-42.01 17.28,36.25 23.34,142.61 18.21,319.08 23.12,4.18 46.53,6.44 70.03,6.77l5.84 -299.7c0.5,-36.03 5.06,-71.89 13.53,-106.9 7.73,-29.78 25.14,-56.13 49.49,-74.93 22.01,-20.75 50.99,-32.48 81.23,-32.91l6.76 0c9.1,0 13.55,-17.04 13.55,-51.11 0,-21.94 -1.41,-43.88 -2.34,-65.82l-12.37 0c-15.87,0.32 -31.61,3 -46.69,7.94 -15.51,3.92 -29.15,13.18 -38.52,26.14l0 29.64 -9.1 -1.17 0 9.1 -14.7 0c0,0 -9.58,-1.87 -26.13,-5.83l-1.18 -9.1c-16.56,-8.87 -25.44,-13.54 -26.14,-13.54 8.39,-12.13 16.56,-23.34 24.98,-34.07l-19.37 -3.27 12.61 0c8.39,0 13.52,0 15.87,-4.66 -30.1,-1.85 -60.04,-5.67 -89.64,-11.44l9.1 0c-15.17,0 -37.57,-2.8 -66.99,-5.84l10.04 -7.94 138.65 0c-16.79,-3.66 -33.93,-5.54 -51.13,-5.6 -29.41,0 -46.68,0 -53.44,-1.17l0 -3.5c11.7,-3.69 23.9,-5.59 36.17,-5.6l68.17 0 21.72 21.47c25.65,-27.07 71.41,-40.84 137.23,-40.84 13.09,10.31 25.62,21.29 37.58,32.91 8.61,12.33 12.74,27.24 11.67,42.25zm-365.76 85.2l-5.13 14.7 -11.89 -116.71c10.47,33.02 16.21,67.37 17.03,102zm159.19 616.68c-11.97,2.84 -24.15,4.71 -36.41,5.6l-103.41 -5.6 139.82 0zm29.41 -250.92l0 -135.15c-3.24,44.99 -3.24,90.15 0,135.15zm107.84 -478.27l-13.54 0c-15.64,0.79 -31.04,4.27 -45.52,10.27 -15.02,4.23 -28.68,12.27 -39.67,23.34 22.27,-16.27 48.61,-26.05 76.09,-28.24 7.83,-0.27 15.53,-2.09 22.65,-5.37zm-3.27 133.99l-10.27 0c-19.5,2.8 -38.38,8.95 -55.78,18.2 21.34,-8.33 43.46,-14.43 66.05,-18.2z"/>
   <path class="fil1" d="M1111.06 1180.86l-61.39 60.21c-25.39,-0.57 -50.79,0.22 -76.1,2.34 -36.17,2.1 -61.15,3.26 -74.92,3.26 -10.18,0.13 -20.26,-2.05 -29.48,-6.38 -9.22,-4.32 -17.34,-10.68 -23.74,-18.59 -10.56,4 -21.98,5.2 -33.14,3.5l-2.1 -4.67c4.03,-7.45 8.56,-14.62 13.54,-21.47 -4.44,-3.74 -10.98,-9.81 -19.38,-18.2l0 -361.1 -66.75 0c-83.41,43.89 -140.21,65.83 -170.4,65.83 1.56,60.68 1.56,152.26 0,274.72l0 19.38c-21.01,19.6 -42.02,40.84 -62.32,63.72 -12.84,0 -31.74,0 -56.25,0 -24.51,0 -42.25,1.17 -52.75,1.17 -36.17,2.6 -72.35,-4.83 -104.57,-21.48 -28.01,-18.91 -42.02,-53.92 -42.02,-104.57l-2.33 -630.22c0.79,-10.48 3.15,-20.79 7,-30.57 14.16,23.34 23.19,186.1 27.07,488.3 2.79,-4.42 4.4,-9.48 4.67,-14.7l-13.54 -684.84c0.83,-7.99 2.71,-15.84 5.6,-23.34 5.43,29.97 8.08,60.36 7.94,90.8 0,55.32 5.6,140.05 14.7,256.76 7.78,108.93 11.59,193.66 11.44,254.19 0,35.02 0,68.63 -2.34,101.07l4.67 -10.03 7.94 -8.17c1.39,-2.8 2.09,-81.85 2.09,-237.15 17.81,147.43 23.36,296.08 16.58,444.42l10.27 0c-1.7,-56.5 0.56,-113.05 6.77,-169.23 5.44,8.41 11.9,64.03 19.37,166.9 9,1.73 18.15,2.51 27.31,2.33 10.63,0.04 21.24,-0.74 31.74,-2.33 0,-79.52 1.55,-198.72 4.67,-357.6 21.22,-22.79 44,-44.08 68.16,-63.72l149.86 -3.27 185.1 4.44c7.26,0.42 14.45,1.6 21.47,3.5 12.63,9.57 24.07,20.62 34.08,32.91 11.15,10.22 20.74,22.01 28.48,35.01l-4.67 280.1c53.44,-111.7 81.73,-233.77 82.86,-357.59l11.44 -483.41 -122.54 0c0,193.74 -3.03,318.7 -9.1,374.87 -7.66,6.71 -14.91,13.89 -21.71,21.48 -15.44,2.26 -31.08,3.04 -46.69,2.33l-174.82 -7.94c-26.62,0 -52.75,0 -78.43,0 -25.94,0.75 -51.55,-5.97 -73.76,-19.38l-1.17 -10.27 9.1 -277.07 2.34 289.67c9.8,-252.09 14.7,-380.08 14.7,-383.97 0,-17.27 -4.67,-27.54 -13.77,-30.57l-35.02 -4.67c12.89,-0.3 25.76,-1.39 38.52,-3.27 -31.05,-2.63 -62.26,-3.03 -93.36,-1.16 -31.29,2.07 -62.71,-0.2 -93.37,-6.77 16.11,-10.73 80.29,-12.84 193.27,-6.77l-5.84 -7c-26.3,-0.73 -52.51,-3.39 -78.42,-7.94 20.94,-4.48 42.3,-6.75 63.72,-6.77l17.03 0c18.89,20.23 36.14,41.93 51.59,64.89 6.02,29.09 7.59,58.91 4.67,88.46l-7.94 253.25 255.35 0 0 -350.12c13.07,-13.77 26.14,-27.07 39.92,-40.38 6.32,-6.65 13.92,-11.96 22.34,-15.61 8.43,-3.65 17.49,-5.56 26.67,-5.64 25.33,0.89 50.47,4.73 74.92,11.44 24.42,7.64 49.51,12.95 74.93,15.87 14.47,8.17 28.71,17.05 43.18,26.14 5.5,6.34 9.54,13.8 11.88,21.86 2.34,8.06 2.9,16.53 1.66,24.83 0,31.12 -3.04,166.27 -9.1,405.44 -3.73,164.33 -5.6,299.78 -5.6,406.37 0,54.01 0,105.89 0,155.69l-4.67 7.93 14.94 -14.7 5.61 -99.9 2.33 107.15zm-802.95 -757.44c-0.66,13.24 -2.22,26.42 -4.67,39.45 -4.66,-37.19 -7.7,-85.59 -9.1,-145.19 -2.32,-78.89 -3.81,-126.97 -4.43,-144.25 13.82,82.59 19.84,166.28 17.98,249.99l0.23 0zm4.67 183.94c0.15,26.2 1.63,52.37 4.43,78.43l2.34 -38.75c0,0 -2.1,-12.37 -7.01,-39.68l0.24 0zm36.18 541.75l-11.21 -11.44 0 11.44 11.21 0zm87.53 10.27l0 -7.01 -44.35 0 44.35 7.01zm460.99 -396.81c-7.08,-11.83 -15.89,-22.54 -26.14,-31.75 -11.93,-7.94 -26.07,-11.86 -40.39,-11.2l-311.83 0 -15.88 3.27c-13.33,9.59 -25.2,21.07 -35.24,34.08l-2.1 14.94 4.44 282.67c0,-179.58 2.26,-278.39 6.77,-296.43 5.37,-21.24 28.01,-31.75 68.16,-31.75 34.08,0 84.97,1.48 152.65,4.43 67.7,2.96 118.65,4.52 152.89,4.67 24.27,0 36.41,15.56 36.41,46.68l3.27 257.92 7 -277.53zm-396.8 386.07l-26.85 0 -2.32 14.71 6.77 7.94 22.41 -22.65zm386.07 -944.86c-1.56,83.25 -5.77,207.74 -12.61,373.46 -3.16,4.67 -7.4,8.52 -12.37,11.2l-28 0c-8.41,0 -114.76,-2.25 -319.08,-6.77 54.07,8.26 108.69,12.47 163.39,12.61l165.96 0c26.37,0 39.91,-9.81 40.84,-29.64l1.87 -360.86zm-338.46 320.24l0 -91.96 -10.27 -111.33 0 203.3 10.27 0zm281.51 296.44l-19.85 0 0 74.92c1.06,-26.26 7.58,-52.02 19.15,-75.63l0.7 0.7zm0 370.19c-4.26,-2.41 -7.9,-5.77 -10.66,-9.82 -2.75,-4.05 -4.54,-8.67 -5.22,-13.52 -1.4,-10.27 -2.57,-20.31 -3.27,-30.1l0 42.01 15.87 15.88 3.27 -4.44zm171.56 36.41c-20.78,5.93 -42.02,10.07 -63.5,12.37l-23.34 0c-14.75,0.33 -29.49,-0.45 -44.12,-2.33l-17.04 -15.87 6.77 0c0,3.73 11.67,6.06 32.92,6.77 15.17,0 36.41,0 63.49,0l44.82 -0.94zm34.07 -58.12l-23.34 -3.26 -2.33 3.26 25.67 0zm14.7 -744.82l-5.6 570 -3.51 0 5.84 -570 3.27 0zm24.98 700.25l0 -369.27c-3.03,20.31 -4.44,31.75 -4.44,33.85l4.44 335.42z"/>
  </g>
  <path class="fil2" d="M249.29 1118.53l-2.33 -630.22c0.79,-10.48 3.15,-20.79 7,-30.57 14.16,23.34 23.19,186.1 27.07,488.3 2.79,-4.42 4.4,-9.48 4.67,-14.7l-13.54 -684.84c0.83,-7.99 2.71,-15.84 5.6,-23.34 5.43,29.97 8.08,60.36 7.94,90.8 0,55.32 5.6,140.05 14.7,256.76 7.78,108.93 11.59,193.66 11.44,254.19 0,35.02 0,68.63 -2.34,101.07l4.67 -10.03 7.94 -8.17c1.39,-2.8 2.09,-81.85 2.09,-237.15 17.81,147.43 23.36,296.08 16.58,444.42l10.27 0c-1.7,-56.5 0.56,-113.05 6.77,-169.23 5.44,8.41 11.9,64.03 19.37,166.9 9,1.73 18.15,2.51 27.31,2.33 10.63,0.04 21.24,-0.74 31.74,-2.33 0,-79.52 1.55,-198.72 4.67,-357.6 21.22,-22.79 44,-44.08 68.16,-63.72l149.86 -3.27 185.1 4.44c7.26,0.42 14.45,1.6 21.47,3.5 12.63,9.57 24.07,20.62 34.08,32.91 11.15,10.22 20.74,22.01 28.48,35.01l-4.67 280.1c53.44,-111.7 81.73,-233.77 82.86,-357.59l11.44 -483.41 -122.54 0c0,193.74 -3.03,318.7 -9.1,374.87 -7.66,6.71 -14.91,13.89 -21.71,21.48 -15.44,2.26 -31.08,3.04 -46.69,2.33l-174.82 -7.94c-26.62,0 -52.75,0 -78.43,0 -25.94,0.75 -51.55,-5.97 -73.76,-19.38l-1.17 -10.27 9.1 -277.07 2.34 289.67c9.8,-252.09 14.7,-380.08 14.7,-383.97 0,-17.27 -4.67,-27.54 -13.77,-30.57l-35.02 -4.67c12.89,-0.3 25.76,-1.39 38.52,-3.27 -31.05,-2.63 -62.26,-3.03 -93.36,-1.16 -31.29,2.07 -62.71,-0.2 -93.37,-6.77 16.11,-10.73 80.29,-12.84 193.27,-6.77l-5.84 -7c-26.3,-0.73 -52.51,-3.39 -78.42,-7.94 20.94,-4.48 42.3,-6.75 63.72,-6.77l17.03 0c18.89,20.23 36.14,41.93 51.59,64.89 6.02,29.09 7.59,58.91 4.67,88.46l-7.94 253.25 255.35 0 0 -350.12c13.07,-13.77 26.14,-27.07 39.92,-40.38 6.32,-6.65 13.92,-11.96 22.34,-15.61 8.43,-3.65 17.49,-5.56 26.67,-5.64 25.33,0.89 50.47,4.73 74.92,11.44 24.42,7.64 49.51,12.95 74.93,15.87 14.47,8.17 28.71,17.05 43.18,26.14 5.5,6.34 9.54,13.8 11.88,21.86 2.34,8.06 2.9,16.53 1.66,24.83 0,31.12 -3.04,166.27 -9.1,405.44 -3.73,164.33 -5.6,299.78 -5.6,406.37 0,54.01 0,105.89 0,155.69l-4.67 7.93 14.94 -14.7 5.61 -99.9 2.33 107.15 -61.39 60.21c-25.39,-0.57 -50.79,0.22 -76.1,2.34 -36.17,2.1 -61.15,3.26 -74.92,3.26 -10.18,0.13 -20.26,-2.05 -29.48,-6.38 -9.22,-4.32 -17.34,-10.68 -23.74,-18.59 -10.56,4 -21.98,5.2 -33.14,3.5l-2.1 -4.67c4.03,-7.45 8.56,-14.62 13.54,-21.47 -4.44,-3.74 -10.98,-9.81 -19.38,-18.2l0 -361.1 -66.75 0c-83.41,43.89 -140.21,65.83 -170.4,65.83 1.56,60.68 1.56,152.26 0,274.72l0 19.38c-21.01,19.6 -42.02,40.84 -62.32,63.72 -12.84,0 -31.74,0 -56.25,0 -24.51,0 -42.25,1.17 -52.75,1.17 -36.17,2.6 -72.35,-4.83 -104.57,-21.48 -28.01,-18.91 -42.02,-53.92 -42.02,-104.57zm54.15 -655.66c-4.66,-37.19 -7.7,-85.59 -9.1,-145.19 -2.32,-78.89 -3.81,-126.97 -4.43,-144.25 13.82,82.59 19.84,166.28 17.98,249.99l0.23 0c-0.66,13.24 -2.22,26.42 -4.67,39.45zm9.35 145.84c-0.08,-0.45 -0.16,-0.9 -0.25,-1.35l0.24 0c0,0.45 0.01,0.9 0.01,1.35zm4.42 77.08c-2.75,-25.61 -4.23,-51.33 -4.42,-77.08 4.73,26.36 6.76,38.33 6.76,38.33l-2.34 38.75zm763.96 -685.78l-803.64 0c-153.28,0 -277.53,124.25 -277.53,277.53l0 803.64c0,153.28 124.26,277.53 277.53,277.53l803.64 0c153.28,0 277.53,-124.25 277.53,-277.53l0 -803.64c0,-153.28 -124.25,-277.53 -277.53,-277.53z"/>
  <polygon class="fil2" points="538.03,320.72 538.03,524.02 548.3,524.02 548.3,432.05 "/>
  <path class="fil2" d="M833.77 588.44c-8.41,0 -114.76,-2.25 -319.08,-6.77 54.07,8.26 108.69,12.47 163.39,12.61l165.96 0c26.37,0 39.91,-9.81 40.84,-29.64l1.87 -360.86c-1.56,83.25 -5.77,207.74 -12.61,373.46 -3.16,4.67 -7.4,8.52 -12.37,11.2l-28 0z"/>
  <polygon class="fil2" points="348.96,1149.11 337.75,1137.67 337.75,1149.11 "/>
  <polygon class="fil2" points="436.5,1152.37 392.14,1152.37 436.5,1159.38 "/>
  <polygon class="fil2" points="473.83,1148.63 471.51,1163.34 478.27,1171.28 500.68,1148.63 "/>
  <path class="fil2" d="M470.34 1054.57c0,-179.58 2.26,-278.39 6.77,-296.43 5.37,-21.24 28.01,-31.75 68.16,-31.75 34.08,0 84.97,1.48 152.65,4.43 67.7,2.96 118.65,4.52 152.89,4.67 24.27,0 36.41,15.56 36.41,46.68l3.27 257.92 7 -277.53c-7.08,-11.83 -15.89,-22.54 -26.14,-31.75 -11.93,-7.94 -26.07,-11.86 -40.39,-11.2l-311.83 0 -15.88 3.27c-13.33,9.59 -25.2,21.07 -35.24,34.08l-2.1 14.94 4.44 282.67z"/>
  <path class="fil2" d="M809.95 820.46l0 74.92c1.05,-26 7.45,-51.51 18.81,-74.92l-18.81 0z"/>
  <path class="fil2" d="M1070.68 788.95l4.44 335.42 0 -369.27c-3.03,20.31 -4.44,31.75 -4.44,33.85z"/>
  <path class="fil2" d="M819.14 1180.83c-2.75,-4.05 -4.54,-8.67 -5.22,-13.52 -1.4,-10.27 -2.57,-20.31 -3.27,-30.1l0 42.01 15.87 15.88 3.27 -4.44c-4.26,-2.41 -7.9,-5.77 -10.66,-9.82z"/>
 </g>
</svg>
