<?xml version="1.0" encoding="UTF-8"?>
<!DOCTYPE svg PUBLIC "-//W3C//DTD SVG 1.1//EN" "http://www.w3.org/Graphics/SVG/1.1/DTD/svg11.dtd">
<!-- Creator: CorelDRAW -->
<svg xmlns="http://www.w3.org/2000/svg" xml:space="preserve" width="35mm" height="34.8067mm" version="1.1" style="shape-rendering:geometricPrecision; text-rendering:geometricPrecision; image-rendering:optimizeQuality; fill-rule:evenodd; clip-rule:evenodd"
viewBox="0 0 554.51 551.44"
 xmlns:xlink="http://www.w3.org/1999/xlink"
 xmlns:xodm="http://www.corel.com/coreldraw/odm/2003">
 <defs>
  <style type="text/css">
   <![CDATA[
    .str0 {stroke:#373435;stroke-width:11.88;stroke-miterlimit:22.9256}
    .str1 {stroke:#BBEC6C;stroke-width:11.88;stroke-miterlimit:22.9256}
    .str3 {stroke:#FE9738;stroke-width:11.88;stroke-miterlimit:22.9256}
    .str2 {stroke:#FEE45A;stroke-width:11.88;stroke-miterlimit:22.9256}
    .fil5 {fill:#6B809B}
    .fil0 {fill:#333333}
    .fil2 {fill:#9E5528}
    .fil6 {fill:#BBEC6C}
    .fil4 {fill:#E94444}
    .fil1 {fill:#FE9738}
    .fil8 {fill:#FE9738}
    .fil7 {fill:#FEE45A}
    .fil3 {fill:white}
   ]]>
  </style>
 </defs>
 <g id="Camada_x0020_1">
  <metadata id="CorelCorpID_0Corel-Layer"/>
  <g id="_2233717513600">
   <path class="fil0" d="M98.12 435.43c13.61,2.81 8.4,33.99 39.92,34.47 30.27,0.46 23.7,-18.21 35.96,-34.47l327.97 0c6.08,118.71 -151.71,98.85 -224.14,98.85 -70.35,0 -229.94,20.28 -224.15,-98.85l44.43 0zm71.89 -16.47c0.19,-15.14 -7.43,-15.44 32.24,-35.86 19.65,-10.12 33.69,0.67 46.85,8.62 52.67,31.85 59.29,-24.05 99.08,-11.57 16.32,5.12 18.43,20.3 45.51,20.64 26.81,0.34 30.48,-13.68 46.3,-19.84 25.68,-10 28.06,9.3 49.81,10.06 26.12,0.92 22.72,-14.81 31.67,-31.35 20.45,7.27 33.47,57.76 -19.74,59.43l-331.7 -0.15zm-115.82 0c-41.24,0 -49.36,-47.42 -19.97,-59.66 28.58,58.45 31.38,21.88 71.39,19.24l0 40.04 -15.48 0.39 -35.94 0zm51.42 -63.9c-6.42,12.89 -2.62,3.66 -20.33,11.18 -20.97,8.9 -36.22,24.65 -31.82,-38.95l51.14 1.8 1.02 25.97zm16 15.95c0.3,-61.44 2.98,-59.39 -68.41,-59.39l0 -18.46 449.27 0 -0.99 18.46 -155.75 0c-18.28,0 -10.15,2.55 -13.34,7.49 6.89,11.15 -3.1,6.39 17.01,8.8l64.23 -0.32c29.37,0 58.74,0 88.27,-0.01 3.53,94.55 -25.42,10.67 -77.03,42.67 -57.24,35.5 -42.23,-4.49 -83.22,-7.95 -46.7,-3.94 -43.83,42.31 -87.71,12.65 -45.76,-30.93 -63.92,0.77 -83.92,8.3 0,-27.31 -4.73,-41.1 5.74,-50.92 21.75,-19.07 119.11,11.64 134.17,-13.23 -6.63,-10.35 0.77,-7.49 -20.09,-7.49 -146.85,0 -136.51,-11.66 -136.29,67.39 0.06,21.6 9.27,78.53 -18.28,74.18 -22.17,-3.5 -13.75,-59.21 -13.64,-82.19zm-67.42 -94.34c-23.48,0 -37.3,-8.98 -36.5,-33.34 0.84,-25.34 15.84,-30.03 40.49,-30.03 146.43,0 292.87,0 439.3,0 57.87,0 53.29,63.37 3.99,63.37l-447.29 0zm-4.33 -185.37c-10.99,14.31 -25.48,33.09 -34.32,53.39 -16.47,37.81 -4.97,35.1 3.7,64.09 -23.36,19.07 -33.55,62.54 17.39,84.14l0.1 45.68c-19.27,10.32 -35.09,17.86 -35.24,48.41 -0.15,30.47 15.26,38.97 35.24,48.92 2.34,135.47 160.17,114.33 241.11,114.33 83.07,0 238.31,20.24 241.11,-114.32 19.42,-9.99 35.28,-18.53 35.09,-48.91 -0.19,-30.61 -14.49,-35.84 -34.99,-47.94l0.4 -45.93c19.49,-10.25 28.78,-10.07 33.38,-34.65 5.18,-27.65 -1.97,-38.14 -16.64,-49.47 9.13,-24.33 17.93,-31.04 4.99,-61.28 -52.1,-121.76 -189.5,-159.68 -315.18,-144.61 -30.67,3.68 -49.98,3.93 -54.27,20.45 11.4,8.22 54.38,-4.45 71.04,-6 114.2,-10.63 239.36,26.69 285.13,139.63 23.42,57.79 -73.9,40.08 -118.28,40.08 -114.48,0 -229.1,-0.54 -343.57,0.19 -99.08,0.62 -1.38,-119.29 64.61,-149.35 16.87,-7.68 17.74,-5.7 20.36,-22.04 -32.33,-3.15 -89.25,49.69 -101.17,65.21z"/>
   <path class="fil1" d="M501.97 435.43l-327.97 0c-12.26,16.26 -5.69,34.92 -35.96,34.47 -31.52,-0.48 -26.31,-31.66 -39.92,-34.47l-44.43 0c-5.8,119.13 153.8,98.85 224.15,98.85 72.42,0 230.21,19.86 224.14,-98.85z"/>
   <path class="fil2" d="M54.19 276.66l447.29 0c49.3,0 53.88,-63.37 -3.99,-63.37 -146.44,0 -292.87,0 -439.3,0 -24.65,0 -39.65,4.69 -40.49,30.03 -0.8,24.36 13.02,33.34 36.5,33.34z"/>
   <path class="fil3" d="M53.2 311.62c71.38,0 68.71,-2.05 68.41,59.39 -0.11,22.98 -8.53,78.69 13.64,82.19 27.55,4.34 18.34,-52.59 18.28,-74.18 -0.22,-79.05 -10.56,-67.39 136.29,-67.39 20.86,0 13.46,-2.86 20.09,7.49 -15.06,24.87 -112.41,-5.83 -134.17,13.23 -10.47,9.82 -5.74,23.61 -5.74,50.92 20,-7.53 38.16,-39.24 83.92,-8.3 43.88,29.67 41.02,-16.59 87.71,-12.65 40.99,3.46 25.98,43.45 83.22,7.95 51.61,-32.01 80.56,51.88 77.03,-42.67 -29.53,0.01 -58.9,0.01 -88.27,0.01l-64.23 0.32c-20.1,-2.41 -10.12,2.35 -17.01,-8.8 3.19,-4.94 -4.94,-7.49 13.34,-7.49l155.75 0 0.99 -18.46 -449.27 0 0 18.46z"/>
   <path class="fil4" d="M170.01 418.95l331.7 0.15c53.21,-1.68 40.19,-52.17 19.74,-59.43 -8.95,16.53 -5.55,32.26 -31.67,31.35 -21.74,-0.76 -24.13,-20.06 -49.81,-10.06 -15.82,6.16 -19.49,20.17 -46.3,19.84 -27.07,-0.34 -29.19,-15.53 -45.51,-20.64 -39.79,-12.48 -46.41,43.42 -99.08,11.57 -13.15,-7.95 -27.2,-18.74 -46.85,-8.62 -39.66,20.42 -32.05,20.73 -32.24,35.86z"/>
   <path class="fil4" d="M54.19 418.95l35.94 0 15.48 -0.39 -0 -40.04c-40.01,2.64 -42.81,39.21 -71.39,-19.24 -29.39,12.25 -21.27,59.66 19.97,59.66z"/>
   <path class="fil3" d="M105.61 355.05l-1.02 -25.97 -51.14 -1.8c-4.39,63.6 10.85,47.85 31.82,38.95 17.71,-7.52 13.91,1.7 20.33,-11.18z"/>
   <path class="fil0" d="M272.08 91.47c11.52,-2.01 15.18,1.86 14.23,-15.87 -0.68,-12.68 -2.12,-11.92 -11.49,-14.6 -7.23,10.09 -6.61,16.87 -2.75,30.46z"/>
   <path class="fil0" d="M207.19 90.97c7.26,-9.34 13.53,-14.85 6.74,-27.83 -12.61,1.11 -10.54,-3.09 -16.35,12.46 -4.65,12.43 -0.02,11.88 9.61,15.37z"/>
   <path class="fil0" d="M353.72 90.11c6.34,-5.73 8.22,-4.55 4.48,-14.57 -4.45,-11.93 -4.34,-10.81 -16.47,-12.65 -7.64,13.63 -0.44,23.62 11.98,27.21z"/>
   <path class="fil5 str0" d="M309.91 319.11c-15.06,24.87 -112.41,-5.83 -134.17,13.23 -10.47,9.82 -5.74,23.61 -5.74,50.92 20,-7.53 38.16,-39.24 83.92,-8.3 43.88,29.67 41.02,-16.59 87.71,-12.65 40.99,3.46 25.98,43.45 83.22,7.95 51.61,-32.01 80.56,51.88 77.03,-42.67 -29.53,0.01 -58.9,0.01 -88.27,0.01l-64.23 0.32c-20.1,-2.41 -10.12,2.35 -17.01,-8.8 0.08,-0.12 0.15,-0.23 0.21,-0.35l-22.73 0.28c0.02,0.02 0.03,0.05 0.05,0.07z"/>
   <path class="fil6 str1" d="M105.61 355.05l-1.02 -25.97 -51.14 -1.8c-4.39,63.6 10.85,47.85 31.82,38.95 17.71,-7.52 13.91,1.7 20.33,-11.18z"/>
   <path class="fil6 str1" d="M175.74 332.34c-10.47,9.82 -5.74,23.61 -5.74,50.92 20,-7.53 38.16,-39.24 83.92,-8.3 43.88,29.67 41.02,-16.59 87.71,-12.65 40.99,3.46 25.98,43.45 83.22,7.95 51.61,-32.01 80.56,51.88 77.03,-42.67 -29.53,0.01 -58.9,0.01 -88.27,0.01l-64.23 0.32c-20.1,-2.41 -10.12,2.35 -17.01,-8.8 0.08,-0.12 0.15,-0.23 0.21,-0.35l-22.73 0.28c0.02,0.02 0.03,0.05 0.05,0.07 -15.06,24.87 -112.41,-5.83 -134.17,13.23z"/>
   <path class="fil7 str2" d="M153.53 379.01c-0.22,-79.05 -10.56,-67.39 136.29,-67.39 20.81,0 13.5,-2.85 20.05,7.42l22.73 -0.28c2.61,-4.71 -4.71,-7.14 13.13,-7.14l155.75 0 0.99 -18.46 -449.27 0 0 18.46c71.38,0 68.71,-2.05 68.41,59.39 -0.11,22.98 -8.53,78.69 13.64,82.19 27.55,4.34 18.34,-52.59 18.28,-74.18z"/>
   <path class="fil8 str3" d="M66.06 197.48c114.46,-0.72 229.08,-0.19 343.57,-0.19 44.38,0 141.7,17.71 118.28,-40.08 -45.77,-112.94 -170.93,-150.26 -285.13,-139.63 -16.63,1.55 -59.49,14.18 -70.98,6.04l-21.64 7.53c-2.16,10.94 -4.6,10.2 -19.47,16.97 -65.99,30.06 -163.69,149.97 -64.61,149.35zm287.66 -107.37c-12.42,-3.59 -19.63,-13.58 -11.98,-27.21 12.13,1.84 12.02,0.71 16.47,12.65 3.74,10.02 1.86,8.84 -4.48,14.57zm-67.4 -14.5c0.95,17.73 -2.71,13.85 -14.23,15.87 -3.86,-13.59 -4.48,-20.38 2.75,-30.46 9.37,2.67 10.81,1.92 11.49,14.6zm-79.12 15.37c-9.63,-3.49 -14.26,-2.94 -9.61,-15.37 5.82,-15.55 3.74,-11.35 16.35,-12.46 6.79,12.98 0.52,18.49 -6.74,27.83z"/>
  </g>
 </g>
</svg>
